<svg width="677" height="1033" viewBox="0 0 677 1033" fill="none" xmlns="http://www.w3.org/2000/svg">
<rect x="338.942" y="846" width="99" height="65.9591" fill="#05FFDB"/>
<circle cx="522.942" cy="879.558" r="108.5" transform="rotate(-135 522.942 879.558)" fill="#05FFDB"/>
<rect x="435.696" y="841.715" width="99.0139" height="65.96" transform="rotate(-135 435.696 841.715)" fill="#05FFDB"/>
<rect x="180.942" y="810" width="380.9" height="65.9591" transform="rotate(-45 180.942 810)" fill="#05A1B8"/>
<circle cx="153.442" cy="879.5" r="108.5" fill="#05A1B8"/>
<circle cx="522.942" cy="516.558" r="108.5" transform="rotate(-135 522.942 516.558)" fill="#05A1B8"/>
<rect x="436.696" y="479.715" width="99.0139" height="65.96" transform="rotate(-135 436.696 479.715)" fill="#05A1B8"/>
<circle cx="153.442" cy="153.442" r="108.5" transform="rotate(45 153.442 153.442)" fill="#05A1B8"/>
<rect x="240.881" y="190.919" width="99.0139" height="65.96" transform="rotate(45 240.881 190.919)" fill="#05A1B8"/>
<rect x="180.942" y="447" width="380.901" height="65.9591" transform="rotate(-45 180.942 447)" fill="#05FFDB"/>
<rect x="338.942" y="121" width="99" height="65.96" fill="#05FFDB"/>
<rect x="238.942" y="484" width="99" height="65.9591" fill="#05FFDB"/>
<circle cx="523.442" cy="153.5" r="108.5" fill="#05FFDB"/>
<circle cx="153.442" cy="517.442" r="108.5" transform="rotate(45 153.442 517.442)" fill="#05FFDB"/>
<rect x="241.881" y="554.919" width="99.0139" height="65.96" transform="rotate(45 241.881 554.919)" fill="#05FFDB"/>
</svg>
