<svg xmlns="http://www.w3.org/2000/svg" xmlns:xlink="http://www.w3.org/1999/xlink" width="820" zoomAndPan="magnify" viewBox="0 0 615 225" height="300" preserveAspectRatio="xMidYMid meet" version="1.0"><defs><g/></defs><path fill="rgb(1.959229%, 100%, 85.879517%)" d="M 67.972656 184.269531 L 89.578125 184.269531 L 89.578125 198.632812 L 67.972656 198.632812 Z M 67.972656 184.269531 " fill-opacity="1" fill-rule="nonzero"/><path fill="rgb(1.959229%, 100%, 85.879517%)" d="M 91.382812 174.867188 C 91.933594 174.320312 92.507812 173.800781 93.105469 173.308594 C 93.707031 172.820312 94.328125 172.359375 94.972656 171.929688 C 95.617188 171.496094 96.28125 171.101562 96.964844 170.734375 C 97.648438 170.371094 98.351562 170.039062 99.066406 169.742188 C 99.78125 169.449219 100.511719 169.1875 101.253906 168.960938 C 101.996094 168.738281 102.746094 168.550781 103.507812 168.398438 C 104.269531 168.25 105.035156 168.136719 105.808594 168.058594 C 106.578125 167.984375 107.351562 167.945312 108.128906 167.945312 C 108.902344 167.945312 109.675781 167.984375 110.449219 168.058594 C 111.222656 168.136719 111.988281 168.25 112.746094 168.398438 C 113.507812 168.550781 114.257812 168.738281 115 168.960938 C 115.742188 169.1875 116.472656 169.449219 117.191406 169.742188 C 117.90625 170.039062 118.605469 170.371094 119.289062 170.734375 C 119.972656 171.101562 120.640625 171.496094 121.285156 171.929688 C 121.929688 172.359375 122.550781 172.820312 123.148438 173.308594 C 123.75 173.800781 124.324219 174.320312 124.871094 174.867188 C 125.421875 175.414062 125.941406 175.988281 126.433594 176.585938 C 126.925781 177.183594 127.386719 177.804688 127.816406 178.449219 C 128.246094 179.089844 128.644531 179.753906 129.011719 180.4375 C 129.375 181.121094 129.707031 181.820312 130.003906 182.535156 C 130.300781 183.25 130.5625 183.976562 130.789062 184.71875 C 131.011719 185.457031 131.199219 186.207031 131.351562 186.96875 C 131.503906 187.726562 131.617188 188.492188 131.691406 189.261719 C 131.769531 190.03125 131.808594 190.804688 131.808594 191.578125 C 131.808594 192.351562 131.769531 193.125 131.691406 193.894531 C 131.617188 194.664062 131.503906 195.429688 131.351562 196.1875 C 131.199219 196.945312 131.011719 197.695312 130.789062 198.4375 C 130.5625 199.179688 130.300781 199.90625 130.003906 200.621094 C 129.707031 201.335938 129.375 202.035156 129.011719 202.71875 C 128.644531 203.398438 128.246094 204.0625 127.816406 204.707031 C 127.386719 205.351562 126.925781 205.972656 126.433594 206.570312 C 125.941406 207.167969 125.421875 207.742188 124.871094 208.289062 C 124.324219 208.835938 123.75 209.355469 123.148438 209.84375 C 122.550781 210.335938 121.929688 210.796875 121.285156 211.226562 C 120.640625 211.65625 119.972656 212.054688 119.289062 212.417969 C 118.605469 212.785156 117.90625 213.113281 117.191406 213.410156 C 116.472656 213.707031 115.742188 213.96875 115 214.191406 C 114.257812 214.417969 113.507812 214.605469 112.746094 214.753906 C 111.988281 214.90625 111.222656 215.019531 110.449219 215.097656 C 109.675781 215.171875 108.902344 215.210938 108.128906 215.210938 C 107.351562 215.210938 106.578125 215.171875 105.808594 215.097656 C 105.035156 215.019531 104.269531 214.90625 103.507812 214.753906 C 102.746094 214.605469 101.996094 214.417969 101.253906 214.191406 C 100.511719 213.96875 99.78125 213.707031 99.066406 213.410156 C 98.351562 213.113281 97.648438 212.785156 96.964844 212.417969 C 96.28125 212.054688 95.617188 211.65625 94.972656 211.226562 C 94.328125 210.796875 93.707031 210.335938 93.105469 209.84375 C 92.507812 209.355469 91.933594 208.835938 91.382812 208.289062 C 90.835938 207.742188 90.316406 207.167969 89.824219 206.570312 C 89.332031 205.972656 88.871094 205.351562 88.4375 204.707031 C 88.007812 204.0625 87.609375 203.398438 87.246094 202.71875 C 86.878906 202.035156 86.546875 201.335938 86.25 200.621094 C 85.953125 199.90625 85.695312 199.179688 85.46875 198.4375 C 85.242188 197.695312 85.054688 196.945312 84.902344 196.1875 C 84.753906 195.429688 84.640625 194.664062 84.5625 193.894531 C 84.488281 193.125 84.449219 192.351562 84.449219 191.578125 C 84.449219 190.804688 84.488281 190.03125 84.5625 189.261719 C 84.640625 188.492188 84.753906 187.726562 84.902344 186.96875 C 85.054688 186.207031 85.242188 185.457031 85.46875 184.71875 C 85.695312 183.976562 85.953125 183.25 86.25 182.535156 C 86.546875 181.820312 86.878906 181.121094 87.246094 180.4375 C 87.609375 179.753906 88.007812 179.089844 88.4375 178.449219 C 88.871094 177.804688 89.332031 177.183594 89.824219 176.585938 C 90.316406 175.988281 90.835938 175.414062 91.382812 174.867188 Z M 91.382812 174.867188 " fill-opacity="1" fill-rule="nonzero"/><path fill="rgb(1.959229%, 100%, 85.879517%)" d="M 89.085938 183.335938 L 73.808594 168.085938 L 83.988281 157.925781 L 99.265625 173.175781 Z M 89.085938 183.335938 " fill-opacity="1" fill-rule="nonzero"/><path fill="rgb(1.959229%, 63.139343%, 72.158813%)" d="M 33.488281 176.425781 L 92.269531 117.761719 L 102.449219 127.921875 L 43.667969 186.585938 Z M 33.488281 176.425781 " fill-opacity="1" fill-rule="nonzero"/><path fill="rgb(1.959229%, 63.139343%, 72.158813%)" d="M 51.167969 191.566406 C 51.167969 192.339844 51.128906 193.109375 51.054688 193.882812 C 50.976562 194.652344 50.863281 195.417969 50.710938 196.175781 C 50.558594 196.933594 50.371094 197.683594 50.148438 198.425781 C 49.921875 199.164062 49.660156 199.894531 49.363281 200.609375 C 49.066406 201.324219 48.738281 202.023438 48.371094 202.703125 C 48.003906 203.386719 47.605469 204.050781 47.175781 204.695312 C 46.746094 205.335938 46.285156 205.957031 45.792969 206.558594 C 45.300781 207.15625 44.78125 207.726562 44.230469 208.277344 C 43.683594 208.824219 43.109375 209.34375 42.507812 209.832031 C 41.910156 210.324219 41.289062 210.785156 40.644531 211.214844 C 40 211.644531 39.332031 212.042969 38.648438 212.40625 C 37.964844 212.773438 37.265625 213.101562 36.550781 213.398438 C 35.832031 213.695312 35.101562 213.953125 34.359375 214.179688 C 33.617188 214.402344 32.867188 214.59375 32.105469 214.742188 C 31.347656 214.894531 30.582031 215.007812 29.808594 215.082031 C 29.035156 215.160156 28.261719 215.195312 27.488281 215.195312 C 26.710938 215.195312 25.9375 215.160156 25.167969 215.082031 C 24.394531 215.007812 23.628906 214.894531 22.867188 214.742188 C 22.105469 214.59375 21.355469 214.402344 20.613281 214.179688 C 19.871094 213.953125 19.140625 213.695312 18.425781 213.398438 C 17.710938 213.101562 17.007812 212.773438 16.324219 212.40625 C 15.640625 212.042969 14.976562 211.644531 14.332031 211.214844 C 13.6875 210.785156 13.066406 210.324219 12.464844 209.832031 C 11.867188 209.34375 11.292969 208.824219 10.742188 208.277344 C 10.195312 207.726562 9.675781 207.15625 9.183594 206.558594 C 8.691406 205.957031 8.230469 205.335938 7.800781 204.695312 C 7.367188 204.050781 6.96875 203.386719 6.605469 202.703125 C 6.238281 202.023438 5.90625 201.324219 5.609375 200.609375 C 5.3125 199.894531 5.054688 199.164062 4.828125 198.425781 C 4.601562 197.683594 4.414062 196.933594 4.261719 196.175781 C 4.113281 195.417969 4 194.652344 3.921875 193.882812 C 3.847656 193.109375 3.808594 192.339844 3.808594 191.566406 C 3.808594 190.789062 3.847656 190.019531 3.921875 189.25 C 4 188.476562 4.113281 187.714844 4.261719 186.953125 C 4.414062 186.195312 4.601562 185.445312 4.828125 184.703125 C 5.054688 183.964844 5.3125 183.234375 5.609375 182.519531 C 5.90625 181.804688 6.238281 181.105469 6.605469 180.425781 C 6.96875 179.742188 7.367188 179.078125 7.800781 178.433594 C 8.230469 177.792969 8.691406 177.171875 9.183594 176.574219 C 9.675781 175.972656 10.195312 175.402344 10.742188 174.855469 C 11.292969 174.308594 11.867188 173.789062 12.464844 173.296875 C 13.066406 172.804688 13.6875 172.34375 14.332031 171.914062 C 14.976562 171.484375 15.640625 171.085938 16.324219 170.722656 C 17.007812 170.359375 17.710938 170.027344 18.425781 169.730469 C 19.140625 169.433594 19.871094 169.175781 20.613281 168.949219 C 21.355469 168.726562 22.105469 168.539062 22.867188 168.386719 C 23.628906 168.234375 24.394531 168.121094 25.167969 168.046875 C 25.9375 167.96875 26.710938 167.933594 27.488281 167.933594 C 28.261719 167.933594 29.035156 167.96875 29.808594 168.046875 C 30.582031 168.121094 31.347656 168.234375 32.105469 168.386719 C 32.867188 168.539062 33.617188 168.726562 34.359375 168.949219 C 35.101562 169.175781 35.832031 169.433594 36.550781 169.730469 C 37.265625 170.027344 37.964844 170.359375 38.648438 170.722656 C 39.332031 171.085938 40 171.484375 40.644531 171.914062 C 41.289062 172.34375 41.910156 172.804688 42.507812 173.296875 C 43.109375 173.789062 43.683594 174.308594 44.230469 174.855469 C 44.78125 175.402344 45.300781 175.972656 45.792969 176.574219 C 46.285156 177.171875 46.746094 177.792969 47.175781 178.433594 C 47.605469 179.078125 48.003906 179.742188 48.371094 180.425781 C 48.738281 181.105469 49.066406 181.804688 49.363281 182.519531 C 49.660156 183.234375 49.921875 183.964844 50.148438 184.703125 C 50.371094 185.445312 50.558594 186.195312 50.710938 186.953125 C 50.863281 187.714844 50.976562 188.476562 51.054688 189.25 C 51.128906 190.019531 51.167969 190.789062 51.167969 191.566406 Z M 51.167969 191.566406 " fill-opacity="1" fill-rule="nonzero"/><path fill="rgb(1.959229%, 63.139343%, 72.158813%)" d="M 91.382812 95.800781 C 91.933594 95.253906 92.507812 94.734375 93.105469 94.246094 C 93.707031 93.753906 94.328125 93.292969 94.972656 92.863281 C 95.617188 92.433594 96.28125 92.035156 96.964844 91.671875 C 97.648438 91.304688 98.351562 90.976562 99.066406 90.679688 C 99.78125 90.382812 100.511719 90.121094 101.253906 89.898438 C 101.996094 89.671875 102.746094 89.484375 103.507812 89.335938 C 104.269531 89.183594 105.035156 89.070312 105.808594 88.992188 C 106.578125 88.917969 107.351562 88.878906 108.128906 88.878906 C 108.902344 88.878906 109.675781 88.917969 110.449219 88.992188 C 111.222656 89.070312 111.988281 89.183594 112.746094 89.335938 C 113.507812 89.484375 114.257812 89.671875 115 89.898438 C 115.742188 90.121094 116.472656 90.382812 117.191406 90.679688 C 117.90625 90.976562 118.605469 91.304688 119.289062 91.671875 C 119.972656 92.035156 120.640625 92.433594 121.285156 92.863281 C 121.929688 93.292969 122.550781 93.753906 123.148438 94.246094 C 123.75 94.734375 124.324219 95.253906 124.871094 95.800781 C 125.421875 96.347656 125.941406 96.921875 126.433594 97.519531 C 126.925781 98.117188 127.386719 98.738281 127.816406 99.382812 C 128.246094 100.027344 128.644531 100.691406 129.011719 101.371094 C 129.375 102.054688 129.707031 102.753906 130.003906 103.46875 C 130.300781 104.183594 130.5625 104.910156 130.789062 105.652344 C 131.011719 106.394531 131.199219 107.144531 131.351562 107.902344 C 131.503906 108.660156 131.617188 109.425781 131.691406 110.195312 C 131.769531 110.964844 131.808594 111.738281 131.808594 112.511719 C 131.808594 113.285156 131.769531 114.058594 131.691406 114.828125 C 131.617188 115.597656 131.503906 116.363281 131.351562 117.125 C 131.199219 117.882812 131.011719 118.632812 130.789062 119.371094 C 130.5625 120.113281 130.300781 120.839844 130.003906 121.554688 C 129.707031 122.269531 129.375 122.96875 129.011719 123.652344 C 128.644531 124.335938 128.246094 125 127.816406 125.640625 C 127.386719 126.285156 126.925781 126.90625 126.433594 127.503906 C 125.941406 128.101562 125.421875 128.675781 124.871094 129.222656 C 124.324219 129.769531 123.75 130.289062 123.148438 130.78125 C 122.550781 131.273438 121.929688 131.730469 121.285156 132.164062 C 120.640625 132.59375 119.972656 132.988281 119.289062 133.355469 C 118.605469 133.71875 117.90625 134.050781 117.191406 134.347656 C 116.472656 134.640625 115.742188 134.902344 115 135.128906 C 114.257812 135.351562 113.507812 135.539062 112.746094 135.691406 C 111.988281 135.84375 111.222656 135.957031 110.449219 136.03125 C 109.675781 136.105469 108.902344 136.144531 108.128906 136.144531 C 107.351562 136.144531 106.578125 136.105469 105.808594 136.03125 C 105.035156 135.957031 104.269531 135.84375 103.507812 135.691406 C 102.746094 135.539062 101.996094 135.351562 101.253906 135.128906 C 100.511719 134.902344 99.78125 134.640625 99.066406 134.347656 C 98.351562 134.050781 97.648438 133.71875 96.964844 133.355469 C 96.28125 132.988281 95.617188 132.59375 94.972656 132.164062 C 94.328125 131.730469 93.707031 131.273438 93.105469 130.78125 C 92.507812 130.289062 91.933594 129.769531 91.382812 129.222656 C 90.835938 128.675781 90.316406 128.101562 89.824219 127.503906 C 89.332031 126.90625 88.871094 126.285156 88.4375 125.640625 C 88.007812 125 87.609375 124.335938 87.246094 123.652344 C 86.878906 122.96875 86.546875 122.269531 86.25 121.554688 C 85.953125 120.839844 85.695312 120.113281 85.46875 119.371094 C 85.242188 118.632812 85.054688 117.882812 84.902344 117.125 C 84.753906 116.363281 84.640625 115.597656 84.5625 114.828125 C 84.488281 114.058594 84.449219 113.285156 84.449219 112.511719 C 84.449219 111.738281 84.488281 110.964844 84.5625 110.195312 C 84.640625 109.425781 84.753906 108.660156 84.902344 107.902344 C 85.054688 107.144531 85.242188 106.394531 85.46875 105.652344 C 85.695312 104.910156 85.953125 104.183594 86.25 103.46875 C 86.546875 102.753906 86.878906 102.054688 87.246094 101.371094 C 87.609375 100.691406 88.007812 100.027344 88.4375 99.382812 C 88.871094 98.738281 89.332031 98.117188 89.824219 97.519531 C 90.316406 96.921875 90.835938 96.347656 91.382812 95.800781 Z M 91.382812 95.800781 " fill-opacity="1" fill-rule="nonzero"/><path fill="rgb(1.959229%, 63.139343%, 72.158813%)" d="M 89.304688 104.488281 L 74.027344 89.238281 L 84.203125 79.078125 L 99.484375 94.328125 Z M 89.304688 104.488281 " fill-opacity="1" fill-rule="nonzero"/><path fill="rgb(1.959229%, 63.139343%, 72.158813%)" d="M 44.230469 50.132812 C 43.683594 50.679688 43.109375 51.199219 42.507812 51.691406 C 41.910156 52.179688 41.289062 52.640625 40.644531 53.070312 C 40 53.503906 39.332031 53.898438 38.648438 54.265625 C 37.964844 54.628906 37.265625 54.960938 36.550781 55.257812 C 35.832031 55.550781 35.101562 55.8125 34.359375 56.039062 C 33.617188 56.261719 32.867188 56.449219 32.105469 56.601562 C 31.347656 56.75 30.582031 56.863281 29.808594 56.941406 C 29.035156 57.015625 28.261719 57.054688 27.488281 57.054688 C 26.710938 57.054688 25.9375 57.015625 25.167969 56.941406 C 24.394531 56.863281 23.628906 56.75 22.867188 56.601562 C 22.105469 56.449219 21.355469 56.261719 20.613281 56.039062 C 19.871094 55.8125 19.140625 55.550781 18.425781 55.257812 C 17.710938 54.960938 17.007812 54.628906 16.324219 54.265625 C 15.640625 53.898438 14.976562 53.503906 14.332031 53.070312 C 13.6875 52.640625 13.066406 52.179688 12.464844 51.691406 C 11.867188 51.199219 11.292969 50.679688 10.742188 50.132812 C 10.195312 49.585938 9.675781 49.011719 9.183594 48.414062 C 8.691406 47.816406 8.230469 47.195312 7.800781 46.550781 C 7.367188 45.910156 6.96875 45.246094 6.605469 44.5625 C 6.238281 43.878906 5.90625 43.179688 5.609375 42.464844 C 5.3125 41.75 5.054688 41.023438 4.828125 40.28125 C 4.601562 39.542969 4.414062 38.792969 4.261719 38.03125 C 4.113281 37.273438 4 36.507812 3.921875 35.738281 C 3.847656 34.96875 3.808594 34.195312 3.808594 33.421875 C 3.808594 32.648438 3.847656 31.875 3.921875 31.105469 C 4 30.335938 4.113281 29.570312 4.261719 28.8125 C 4.414062 28.054688 4.601562 27.304688 4.828125 26.5625 C 5.054688 25.820312 5.3125 25.09375 5.609375 24.378906 C 5.90625 23.664062 6.238281 22.964844 6.605469 22.28125 C 6.96875 21.601562 7.367188 20.9375 7.800781 20.292969 C 8.230469 19.648438 8.691406 19.027344 9.183594 18.429688 C 9.675781 17.832031 10.195312 17.257812 10.742188 16.710938 C 11.292969 16.164062 11.867188 15.644531 12.464844 15.15625 C 13.066406 14.664062 13.6875 14.203125 14.332031 13.773438 C 14.976562 13.34375 15.640625 12.945312 16.324219 12.582031 C 17.007812 12.214844 17.710938 11.886719 18.425781 11.589844 C 19.140625 11.292969 19.871094 11.03125 20.613281 10.808594 C 21.355469 10.582031 22.105469 10.394531 22.867188 10.246094 C 23.628906 10.09375 24.394531 9.980469 25.167969 9.902344 C 25.9375 9.828125 26.710938 9.789062 27.488281 9.789062 C 28.261719 9.789062 29.035156 9.828125 29.808594 9.902344 C 30.582031 9.980469 31.347656 10.09375 32.105469 10.246094 C 32.867188 10.394531 33.617188 10.582031 34.359375 10.808594 C 35.101562 11.03125 35.832031 11.292969 36.550781 11.589844 C 37.265625 11.886719 37.964844 12.214844 38.648438 12.582031 C 39.332031 12.945312 40 13.34375 40.644531 13.773438 C 41.289062 14.203125 41.910156 14.664062 42.507812 15.15625 C 43.109375 15.644531 43.683594 16.164062 44.230469 16.710938 C 44.78125 17.257812 45.300781 17.832031 45.792969 18.429688 C 46.285156 19.027344 46.746094 19.648438 47.175781 20.292969 C 47.605469 20.9375 48.003906 21.601562 48.371094 22.28125 C 48.738281 22.964844 49.066406 23.664062 49.363281 24.378906 C 49.660156 25.09375 49.921875 25.820312 50.148438 26.5625 C 50.371094 27.304688 50.558594 28.054688 50.710938 28.8125 C 50.863281 29.570312 50.976562 30.335938 51.054688 31.105469 C 51.128906 31.875 51.167969 32.648438 51.167969 33.421875 C 51.167969 34.195312 51.128906 34.96875 51.054688 35.738281 C 50.976562 36.507812 50.863281 37.273438 50.710938 38.03125 C 50.558594 38.792969 50.371094 39.542969 50.148438 40.28125 C 49.921875 41.023438 49.660156 41.75 49.363281 42.464844 C 49.066406 43.179688 48.738281 43.878906 48.371094 44.5625 C 48.003906 45.246094 47.605469 45.910156 47.175781 46.550781 C 46.746094 47.195312 46.285156 47.816406 45.792969 48.414062 C 45.300781 49.011719 44.78125 49.585938 44.230469 50.132812 Z M 44.230469 50.132812 " fill-opacity="1" fill-rule="nonzero"/><path fill="rgb(1.959229%, 63.139343%, 72.158813%)" d="M 46.570312 41.585938 L 61.851562 56.835938 L 51.671875 66.992188 L 36.390625 51.746094 Z M 46.570312 41.585938 " fill-opacity="1" fill-rule="nonzero"/><path fill="rgb(1.959229%, 100%, 85.879517%)" d="M 33.488281 97.363281 L 92.269531 38.699219 L 102.449219 48.855469 L 43.667969 107.519531 Z M 33.488281 97.363281 " fill-opacity="1" fill-rule="nonzero"/><path fill="rgb(1.959229%, 100%, 85.879517%)" d="M 67.972656 26.355469 L 89.578125 26.355469 L 89.578125 40.722656 L 67.972656 40.722656 Z M 67.972656 26.355469 " fill-opacity="1" fill-rule="nonzero"/><path fill="rgb(1.959229%, 100%, 85.879517%)" d="M 46.148438 105.421875 L 67.753906 105.421875 L 67.753906 119.789062 L 46.148438 119.789062 Z M 46.148438 105.421875 " fill-opacity="1" fill-rule="nonzero"/><path fill="rgb(1.959229%, 100%, 85.879517%)" d="M 131.917969 33.433594 C 131.917969 34.210938 131.878906 34.980469 131.800781 35.75 C 131.726562 36.523438 131.613281 37.285156 131.460938 38.046875 C 131.308594 38.804688 131.121094 39.554688 130.898438 40.296875 C 130.671875 41.035156 130.410156 41.765625 130.113281 42.480469 C 129.816406 43.195312 129.484375 43.894531 129.121094 44.574219 C 128.753906 45.257812 128.355469 45.921875 127.925781 46.566406 C 127.496094 47.207031 127.035156 47.828125 126.542969 48.425781 C 126.050781 49.027344 125.53125 49.597656 124.980469 50.144531 C 124.433594 50.691406 123.859375 51.210938 123.257812 51.703125 C 122.660156 52.195312 122.039062 52.65625 121.394531 53.085938 C 120.746094 53.515625 120.082031 53.914062 119.398438 54.277344 C 118.714844 54.640625 118.015625 54.972656 117.296875 55.269531 C 116.582031 55.566406 115.851562 55.824219 115.109375 56.050781 C 114.367188 56.273438 113.617188 56.460938 112.855469 56.613281 C 112.097656 56.765625 111.328125 56.878906 110.558594 56.953125 C 109.785156 57.03125 109.011719 57.066406 108.238281 57.066406 C 107.460938 57.066406 106.6875 57.03125 105.917969 56.953125 C 105.144531 56.878906 104.378906 56.765625 103.617188 56.613281 C 102.855469 56.460938 102.105469 56.273438 101.363281 56.050781 C 100.621094 55.824219 99.890625 55.566406 99.175781 55.269531 C 98.460938 54.972656 97.757812 54.640625 97.074219 54.277344 C 96.390625 53.914062 95.726562 53.515625 95.082031 53.085938 C 94.4375 52.65625 93.816406 52.195312 93.214844 51.703125 C 92.617188 51.210938 92.042969 50.691406 91.492188 50.144531 C 90.945312 49.597656 90.425781 49.027344 89.933594 48.425781 C 89.441406 47.828125 88.980469 47.207031 88.546875 46.566406 C 88.117188 45.921875 87.71875 45.257812 87.355469 44.574219 C 86.988281 43.894531 86.65625 43.195312 86.359375 42.480469 C 86.0625 41.765625 85.800781 41.035156 85.578125 40.296875 C 85.351562 39.554688 85.164062 38.804688 85.011719 38.046875 C 84.863281 37.285156 84.746094 36.523438 84.671875 35.75 C 84.597656 34.980469 84.558594 34.210938 84.558594 33.433594 C 84.558594 32.660156 84.597656 31.890625 84.671875 31.117188 C 84.746094 30.347656 84.863281 29.582031 85.011719 28.824219 C 85.164062 28.066406 85.351562 27.316406 85.578125 26.574219 C 85.800781 25.835938 86.0625 25.105469 86.359375 24.390625 C 86.65625 23.675781 86.988281 22.976562 87.355469 22.296875 C 87.71875 21.613281 88.117188 20.949219 88.546875 20.304688 C 88.980469 19.664062 89.441406 19.042969 89.933594 18.441406 C 90.425781 17.84375 90.945312 17.273438 91.492188 16.722656 C 92.042969 16.175781 92.617188 15.65625 93.214844 15.167969 C 93.816406 14.675781 94.4375 14.214844 95.082031 13.785156 C 95.726562 13.355469 96.390625 12.957031 97.074219 12.59375 C 97.757812 12.226562 98.457031 11.898438 99.175781 11.601562 C 99.890625 11.304688 100.621094 11.046875 101.363281 10.820312 C 102.105469 10.597656 102.855469 10.40625 103.617188 10.257812 C 104.378906 10.105469 105.144531 9.992188 105.917969 9.917969 C 106.6875 9.839844 107.460938 9.804688 108.238281 9.804688 C 109.011719 9.804688 109.785156 9.839844 110.558594 9.917969 C 111.328125 9.992188 112.097656 10.105469 112.855469 10.257812 C 113.617188 10.40625 114.367188 10.597656 115.109375 10.820312 C 115.851562 11.046875 116.582031 11.304688 117.296875 11.601562 C 118.015625 11.898438 118.714844 12.226562 119.398438 12.59375 C 120.082031 12.957031 120.746094 13.355469 121.394531 13.785156 C 122.039062 14.214844 122.660156 14.675781 123.257812 15.167969 C 123.859375 15.65625 124.433594 16.175781 124.980469 16.722656 C 125.53125 17.273438 126.050781 17.84375 126.542969 18.441406 C 127.035156 19.042969 127.496094 19.664062 127.925781 20.304688 C 128.355469 20.949219 128.753906 21.613281 129.121094 22.296875 C 129.484375 22.976562 129.816406 23.675781 130.113281 24.390625 C 130.410156 25.105469 130.671875 25.835938 130.898438 26.574219 C 131.121094 27.316406 131.308594 28.066406 131.460938 28.824219 C 131.613281 29.582031 131.726562 30.347656 131.800781 31.117188 C 131.878906 31.890625 131.917969 32.660156 131.917969 33.433594 Z M 131.917969 33.433594 " fill-opacity="1" fill-rule="nonzero"/><path fill="rgb(1.959229%, 100%, 85.879517%)" d="M 44.230469 129.414062 C 43.683594 129.964844 43.109375 130.480469 42.507812 130.972656 C 41.910156 131.464844 41.289062 131.925781 40.644531 132.355469 C 40 132.785156 39.332031 133.183594 38.648438 133.546875 C 37.964844 133.910156 37.265625 134.242188 36.550781 134.539062 C 35.832031 134.835938 35.101562 135.09375 34.359375 135.320312 C 33.617188 135.542969 32.867188 135.734375 32.105469 135.882812 C 31.347656 136.035156 30.582031 136.148438 29.808594 136.222656 C 29.035156 136.300781 28.261719 136.335938 27.488281 136.335938 C 26.710938 136.335938 25.9375 136.300781 25.167969 136.222656 C 24.394531 136.148438 23.628906 136.035156 22.867188 135.882812 C 22.105469 135.734375 21.355469 135.542969 20.613281 135.320312 C 19.871094 135.09375 19.140625 134.835938 18.425781 134.539062 C 17.710938 134.242188 17.007812 133.910156 16.324219 133.546875 C 15.640625 133.183594 14.976562 132.785156 14.332031 132.355469 C 13.6875 131.925781 13.066406 131.464844 12.464844 130.972656 C 11.867188 130.480469 11.292969 129.964844 10.742188 129.414062 C 10.195312 128.867188 9.675781 128.296875 9.183594 127.699219 C 8.691406 127.097656 8.230469 126.476562 7.800781 125.835938 C 7.367188 125.191406 6.96875 124.527344 6.605469 123.84375 C 6.238281 123.164062 5.90625 122.464844 5.609375 121.75 C 5.3125 121.035156 5.054688 120.304688 4.828125 119.566406 C 4.601562 118.824219 4.414062 118.074219 4.261719 117.316406 C 4.113281 116.554688 4 115.792969 3.921875 115.023438 C 3.847656 114.25 3.808594 113.480469 3.808594 112.707031 C 3.808594 111.929688 3.847656 111.160156 3.921875 110.390625 C 4 109.617188 4.113281 108.855469 4.261719 108.09375 C 4.414062 107.335938 4.601562 106.585938 4.828125 105.84375 C 5.054688 105.105469 5.3125 104.375 5.609375 103.660156 C 5.90625 102.945312 6.238281 102.246094 6.605469 101.566406 C 6.96875 100.882812 7.367188 100.21875 7.800781 99.574219 C 8.230469 98.933594 8.691406 98.3125 9.183594 97.714844 C 9.675781 97.113281 10.195312 96.542969 10.742188 95.996094 C 11.292969 95.449219 11.867188 94.929688 12.464844 94.4375 C 13.066406 93.945312 13.6875 93.484375 14.332031 93.054688 C 14.976562 92.625 15.640625 92.226562 16.324219 91.863281 C 17.007812 91.5 17.710938 91.167969 18.425781 90.871094 C 19.140625 90.574219 19.871094 90.316406 20.613281 90.089844 C 21.355469 89.867188 22.105469 89.679688 22.867188 89.527344 C 23.628906 89.375 24.394531 89.261719 25.167969 89.1875 C 25.9375 89.109375 26.710938 89.074219 27.488281 89.074219 C 28.261719 89.074219 29.035156 89.109375 29.808594 89.1875 C 30.582031 89.261719 31.347656 89.375 32.105469 89.527344 C 32.867188 89.679688 33.617188 89.867188 34.359375 90.089844 C 35.101562 90.316406 35.832031 90.574219 36.550781 90.871094 C 37.265625 91.167969 37.964844 91.5 38.648438 91.863281 C 39.332031 92.226562 40 92.625 40.644531 93.054688 C 41.289062 93.484375 41.910156 93.945312 42.507812 94.4375 C 43.109375 94.929688 43.683594 95.449219 44.230469 95.996094 C 44.78125 96.542969 45.300781 97.113281 45.792969 97.714844 C 46.285156 98.3125 46.746094 98.933594 47.175781 99.574219 C 47.605469 100.21875 48.003906 100.882812 48.371094 101.566406 C 48.738281 102.246094 49.066406 102.945312 49.363281 103.660156 C 49.660156 104.375 49.921875 105.105469 50.148438 105.84375 C 50.371094 106.585938 50.558594 107.335938 50.710938 108.09375 C 50.863281 108.855469 50.976562 109.617188 51.054688 110.390625 C 51.128906 111.160156 51.167969 111.929688 51.167969 112.707031 C 51.167969 113.480469 51.128906 114.25 51.054688 115.023438 C 50.976562 115.792969 50.863281 116.554688 50.710938 117.316406 C 50.558594 118.074219 50.371094 118.824219 50.148438 119.566406 C 49.921875 120.304688 49.660156 121.035156 49.363281 121.75 C 49.066406 122.464844 48.738281 123.164062 48.371094 123.84375 C 48.003906 124.527344 47.605469 125.191406 47.175781 125.835938 C 46.746094 126.476562 46.285156 127.097656 45.792969 127.699219 C 45.300781 128.296875 44.78125 128.867188 44.230469 129.414062 Z M 44.230469 129.414062 " fill-opacity="1" fill-rule="nonzero"/><path fill="rgb(1.959229%, 100%, 85.879517%)" d="M 46.789062 120.867188 L 62.070312 136.117188 L 51.890625 146.277344 L 36.609375 131.027344 Z M 46.789062 120.867188 " fill-opacity="1" fill-rule="nonzero"/><g fill="rgb(100%, 100%, 100%)" fill-opacity="1"><g transform="translate(148.67645, 108.834845)"><g><path d="M 18.179688 -34.289062 C 20.070312 -36 22.589844 -36.808594 25.46875 -36.808594 C 29.878906 -36.808594 31.679688 -34.921875 31.679688 -31.679688 L 31.679688 -15.210938 C 31.679688 -11.429688 29.519531 -9.089844 25.019531 -9.089844 C 20.789062 -9.089844 18.179688 -11.160156 18.179688 -14.488281 Z M 5.761719 -14.488281 C 5.761719 -6.03125 12.78125 0.628906 24.929688 0.628906 C 37.710938 0.628906 44.101562 -6.660156 44.101562 -16.109375 L 44.101562 -31.230469 C 44.101562 -39.691406 39.421875 -46.171875 27.988281 -46.171875 C 23.761719 -46.171875 21.058594 -45.269531 18.179688 -43.648438 L 18.179688 -59.488281 C 18.179688 -62.371094 15.929688 -64.980469 11.96875 -64.980469 C 8.011719 -64.980469 5.761719 -62.371094 5.761719 -59.488281 Z M 5.761719 -14.488281 "/></g></g></g><g fill="rgb(100%, 100%, 100%)" fill-opacity="1"><g transform="translate(202.04653, 108.834845)"><g><path d="M 19.800781 -57.960938 C 19.800781 -61.378906 16.738281 -64.261719 12.78125 -64.261719 C 8.820312 -64.261719 5.761719 -61.46875 5.761719 -57.960938 C 5.761719 -54.539062 8.820312 -51.660156 12.78125 -51.660156 C 16.738281 -51.660156 19.800781 -54.449219 19.800781 -57.960938 Z M 18.988281 -40.410156 C 18.988281 -43.378906 16.289062 -45.898438 12.78125 -45.898438 C 9.269531 -45.898438 6.570312 -43.378906 6.570312 -40.410156 L 6.570312 -4.949219 C 6.570312 -1.800781 9.269531 0.628906 12.78125 0.628906 C 16.289062 0.628906 18.988281 -1.800781 18.988281 -4.949219 Z M 18.988281 -40.410156 "/></g></g></g><g fill="rgb(100%, 100%, 100%)" fill-opacity="1"><g transform="translate(232.916634, 108.834845)"><g><path d="M 23.578125 0.628906 C 36.359375 0.628906 43.109375 -6.660156 43.109375 -16.109375 L 43.109375 -29.519531 C 43.109375 -38.96875 36.359375 -46.261719 23.578125 -46.261719 C 10.800781 -46.261719 4.050781 -38.96875 4.050781 -29.519531 L 4.050781 -16.109375 C 4.050781 -6.660156 10.800781 0.628906 23.578125 0.628906 Z M 23.578125 -9.988281 C 18.898438 -9.988281 16.46875 -12.328125 16.46875 -16.109375 L 16.46875 -29.609375 C 16.46875 -33.300781 18.898438 -35.640625 23.578125 -35.640625 C 28.261719 -35.640625 30.691406 -33.300781 30.691406 -29.609375 L 30.691406 -16.109375 C 30.691406 -12.328125 28.261719 -9.988281 23.578125 -9.988281 Z M 23.578125 -9.988281 "/></g></g></g><g fill="rgb(100%, 100%, 100%)" fill-opacity="1"><g transform="translate(285.296721, 108.834845)"><g><path d="M 5.761719 -5.039062 C 5.761719 -1.980469 8.011719 0.359375 11.96875 0.359375 C 15.929688 0.359375 18.179688 -1.980469 18.179688 -5.039062 L 18.179688 -32.941406 L 24.839844 -32.941406 C 28.171875 -32.941406 30.78125 -35.191406 30.78125 -38.25 C 30.78125 -41.308594 28.171875 -43.648438 24.839844 -43.648438 L 18.179688 -43.648438 L 18.179688 -48.058594 C 18.179688 -51.300781 19.890625 -54.089844 23.671875 -54.089844 C 25.378906 -54.089844 27.269531 -53.550781 28.980469 -53.550781 C 32.21875 -53.550781 35.101562 -55.53125 35.101562 -58.949219 C 35.101562 -64.890625 26.460938 -64.980469 24.121094 -64.980469 C 14.128906 -64.800781 5.761719 -59.308594 5.761719 -47.429688 Z M 5.761719 -5.039062 "/></g></g></g><g fill="rgb(100%, 100%, 100%)" fill-opacity="1"><g transform="translate(323.726815, 108.834845)"><g><path d="M 19.800781 -57.960938 C 19.800781 -61.378906 16.738281 -64.261719 12.78125 -64.261719 C 8.820312 -64.261719 5.761719 -61.46875 5.761719 -57.960938 C 5.761719 -54.539062 8.820312 -51.660156 12.78125 -51.660156 C 16.738281 -51.660156 19.800781 -54.449219 19.800781 -57.960938 Z M 18.988281 -40.410156 C 18.988281 -43.378906 16.289062 -45.898438 12.78125 -45.898438 C 9.269531 -45.898438 6.570312 -43.378906 6.570312 -40.410156 L 6.570312 -4.949219 C 6.570312 -1.800781 9.269531 0.628906 12.78125 0.628906 C 16.289062 0.628906 18.988281 -1.800781 18.988281 -4.949219 Z M 18.988281 -40.410156 "/></g></g></g><g fill="rgb(100%, 100%, 100%)" fill-opacity="1"><g transform="translate(354.59692, 108.834845)"><g><path d="M 21.148438 -45.808594 C 8.28125 -45.808594 4.050781 -37.890625 4.050781 -27.179688 L 4.050781 -17.011719 C 4.050781 -6.480469 10.078125 0.628906 20.519531 0.628906 C 25.109375 0.628906 28.800781 -0.898438 33.210938 -3.328125 C 34.558594 -1.351562 36.359375 0.0898438 38.609375 0.0898438 C 41.398438 0.0898438 44.460938 -1.800781 44.460938 -5.398438 C 44.460938 -6.660156 44.101562 -7.558594 43.199219 -8.460938 C 42.03125 -9.628906 41.488281 -10.261719 41.488281 -11.609375 L 41.488281 -59.488281 C 41.488281 -62.460938 39.238281 -64.980469 35.28125 -64.980469 C 31.320312 -64.980469 29.070312 -62.550781 29.070312 -59.488281 L 29.070312 -44.101562 C 25.828125 -45.449219 23.941406 -45.808594 21.148438 -45.808594 Z M 29.070312 -13.410156 C 29.070312 -12.871094 29.160156 -12.328125 29.25 -11.699219 C 26.460938 -10.441406 24.210938 -9.808594 22.320312 -9.808594 C 18.449219 -9.808594 16.46875 -12.328125 16.46875 -17.011719 L 16.46875 -27.179688 C 16.46875 -32.761719 18.089844 -35.550781 22.5 -35.550781 C 24.03125 -35.550781 26.28125 -35.191406 29.070312 -34.378906 Z M 29.070312 -13.410156 "/></g></g></g><g fill="rgb(100%, 100%, 100%)" fill-opacity="1"><g transform="translate(408.237001, 108.834845)"><g><path d="M 23.398438 -17.191406 C 35.550781 -17.191406 40.859375 -22.230469 40.859375 -30.871094 C 40.859375 -39.960938 35.011719 -46.171875 23.21875 -46.171875 C 10.710938 -46.171875 4.050781 -39.238281 4.050781 -30.148438 L 4.050781 -15.121094 C 4.050781 -6.210938 10.890625 0.628906 22.769531 0.628906 C 28.53125 0.628906 40.050781 -0.988281 40.050781 -7.289062 C 40.050781 -9.359375 38.789062 -12.238281 34.46875 -12.238281 C 32.941406 -12.238281 32.128906 -11.878906 31.769531 -11.699219 C 28.890625 -10.441406 26.550781 -9.71875 23.671875 -9.71875 C 18.808594 -9.71875 16.46875 -11.699219 16.46875 -14.761719 L 16.46875 -17.730469 C 19.078125 -17.371094 21.058594 -17.191406 23.398438 -17.191406 Z M 28.53125 -31.5 C 28.53125 -27.628906 26.371094 -26.460938 22.949219 -26.460938 C 22.050781 -26.460938 19.351562 -26.550781 16.46875 -26.820312 L 16.46875 -30.691406 C 16.46875 -34.289062 18.808594 -36.539062 23.128906 -36.539062 C 26.640625 -36.539062 28.53125 -35.101562 28.53125 -31.5 Z M 28.53125 -31.5 "/></g></g></g><g fill="rgb(100%, 100%, 100%)" fill-opacity="1"><g transform="translate(457.107093, 108.834845)"><g><path d="M 14.398438 0.628906 C 18.628906 0.628906 21.148438 -0.988281 21.148438 -4.230469 C 21.148438 -5.941406 20.429688 -6.390625 19.53125 -7.378906 C 18.269531 -8.730469 18.179688 -9.179688 18.179688 -11.070312 L 18.179688 -59.398438 C 18.179688 -62.550781 15.480469 -64.980469 11.96875 -64.980469 C 8.460938 -64.980469 5.761719 -62.371094 5.761719 -59.398438 L 5.761719 -9.988281 C 5.761719 -0.539062 10.800781 0.628906 14.398438 0.628906 Z M 14.398438 0.628906 "/></g></g></g><g fill="rgb(100%, 100%, 100%)" fill-opacity="1"><g transform="translate(486.447203, 108.834845)"><g><path d="M 19.800781 -57.960938 C 19.800781 -61.378906 16.738281 -64.261719 12.78125 -64.261719 C 8.820312 -64.261719 5.761719 -61.46875 5.761719 -57.960938 C 5.761719 -54.539062 8.820312 -51.660156 12.78125 -51.660156 C 16.738281 -51.660156 19.800781 -54.449219 19.800781 -57.960938 Z M 18.988281 -40.410156 C 18.988281 -43.378906 16.289062 -45.898438 12.78125 -45.898438 C 9.269531 -45.898438 6.570312 -43.378906 6.570312 -40.410156 L 6.570312 -4.949219 C 6.570312 -1.800781 9.269531 0.628906 12.78125 0.628906 C 16.289062 0.628906 18.988281 -1.800781 18.988281 -4.949219 Z M 18.988281 -40.410156 "/></g></g></g><g fill="rgb(100%, 100%, 100%)" fill-opacity="1"><g transform="translate(517.317318, 108.834845)"><g><path d="M 4.050781 -16.558594 C 4.050781 -6.929688 9.898438 0.628906 22.589844 0.628906 C 27.988281 0.628906 38.070312 -0.71875 38.070312 -7.199219 C 38.070312 -9.269531 36.988281 -11.789062 32.308594 -11.789062 C 31.050781 -11.789062 30.421875 -11.609375 29.519531 -11.25 C 27.71875 -10.53125 26.191406 -9.71875 23.398438 -9.71875 C 18.449219 -9.71875 16.46875 -12.328125 16.46875 -16.558594 L 16.46875 -28.710938 C 16.46875 -32.941406 18.449219 -35.550781 23.398438 -35.550781 C 26.191406 -35.550781 27.628906 -34.738281 29.519531 -34.019531 C 30.78125 -33.570312 31.589844 -33.480469 32.488281 -33.480469 C 36.988281 -33.480469 38.070312 -35.910156 38.070312 -38.070312 C 38.070312 -44.640625 27.988281 -45.898438 22.679688 -45.898438 C 9.808594 -45.898438 4.050781 -38.339844 4.050781 -28.710938 Z M 4.050781 -16.558594 "/></g></g></g><g fill="rgb(1.959229%, 100%, 85.879517%)" fill-opacity="1"><g transform="translate(562.406905, 108.834845)"><g><path d="M 24.929688 -22.589844 L 36.898438 -2.789062 C 37.980469 -1.078125 39.601562 0.808594 42.75 0.808594 C 45.808594 0.808594 48.78125 -2.070312 48.78125 -5.039062 C 48.78125 -6.03125 48.328125 -7.378906 47.878906 -8.101562 L 32.308594 -32.941406 L 46.53125 -55.53125 C 46.980469 -56.519531 47.339844 -57.601562 47.339844 -58.5 C 47.339844 -61.648438 44.550781 -64.261719 41.398438 -64.261719 C 38.25 -64.261719 36.269531 -61.828125 35.101562 -60.121094 L 24.929688 -43.378906 L 14.761719 -60.121094 C 13.5 -62.28125 11.339844 -64.261719 8.550781 -64.261719 C 5.308594 -64.261719 2.519531 -61.46875 2.519531 -58.589844 C 2.519531 -57.601562 2.789062 -56.429688 3.238281 -55.53125 L 17.550781 -32.941406 L 1.980469 -8.101562 C 1.53125 -7.378906 1.078125 -6.03125 1.078125 -5.039062 C 1.078125 -2.070312 3.960938 0.808594 7.199219 0.808594 C 10.351562 0.808594 11.96875 -1.261719 12.960938 -2.878906 L 12.960938 -2.789062 Z M 24.929688 -22.589844 "/></g></g></g><g fill="rgb(100%, 100%, 100%)" fill-opacity="1"><g transform="translate(151.509837, 176.564921)"><g><path d="M 19.328125 -32.894531 C 10.816406 -32.894531 6.785156 -27.328125 5.695312 -19.710938 L 4.542969 -11.582031 C 3.519531 -4.414062 6.398438 0.511719 12.734375 0.511719 C 15.933594 0.511719 18.75 -0.703125 21.949219 -2.625 C 22.65625 -0.769531 24.253906 0.320312 26.238281 0.320312 C 27.710938 0.320312 29.4375 -0.320312 29.4375 -2.175781 C 29.4375 -3.136719 28.925781 -4.03125 27.839844 -4.03125 C 27.582031 -4.03125 27.519531 -3.96875 27.328125 -3.96875 C 26.558594 -3.96875 26.238281 -4.609375 26.429688 -5.886719 L 28.414062 -19.96875 C 29.566406 -28.285156 27.070312 -32.894531 19.328125 -32.894531 Z M 21.566406 -6.71875 C 19.519531 -5.183594 17.023438 -3.96875 14.398438 -3.96875 C 10.558594 -3.96875 8.832031 -6.589844 9.535156 -11.582031 L 10.6875 -19.710938 C 11.519531 -25.789062 13.503906 -28.285156 18.367188 -28.285156 C 22.78125 -28.285156 24.320312 -26.238281 23.679688 -21.632812 Z M 21.566406 -6.71875 "/></g></g></g><g fill="rgb(100%, 100%, 100%)" fill-opacity="1"><g transform="translate(220.883885, 176.564921)"><g><path d="M 4.480469 -11.261719 C 3.519531 -4.671875 6.273438 0.511719 14.269531 0.511719 C 17.34375 0.511719 23.742188 -0.449219 23.742188 -3.648438 C 23.742188 -4.671875 22.910156 -5.566406 21.824219 -5.566406 C 21.503906 -5.566406 21.183594 -5.566406 20.800781 -5.375 C 19.136719 -4.671875 17.597656 -3.902344 15.359375 -3.902344 C 10.367188 -3.902344 8.769531 -6.589844 9.40625 -11.261719 L 10.816406 -20.925781 C 11.457031 -25.597656 13.824219 -28.285156 18.816406 -28.285156 C 21.054688 -28.285156 22.335938 -27.519531 23.808594 -26.816406 C 24.128906 -26.621094 24.445312 -26.621094 24.765625 -26.621094 C 26.109375 -26.621094 27.261719 -27.773438 27.261719 -29.054688 C 27.261719 -31.871094 21.824219 -32.703125 18.941406 -32.703125 C 10.945312 -32.703125 6.71875 -27.519531 5.824219 -20.925781 Z M 4.480469 -11.261719 "/></g></g></g><g fill="rgb(100%, 100%, 100%)" fill-opacity="1"><g transform="translate(284.562288, 176.564921)"><g><path d="M 19.328125 -32.894531 C 10.816406 -32.894531 6.785156 -27.328125 5.695312 -19.710938 L 4.542969 -11.582031 C 3.519531 -4.414062 6.398438 0.511719 12.734375 0.511719 C 15.933594 0.511719 18.75 -0.703125 21.949219 -2.625 C 22.65625 -0.769531 24.253906 0.320312 26.238281 0.320312 C 27.710938 0.320312 29.4375 -0.320312 29.4375 -2.175781 C 29.4375 -3.136719 28.925781 -4.03125 27.839844 -4.03125 C 27.582031 -4.03125 27.519531 -3.96875 27.328125 -3.96875 C 26.558594 -3.96875 26.238281 -4.609375 26.429688 -5.886719 L 28.414062 -19.96875 C 29.566406 -28.285156 27.070312 -32.894531 19.328125 -32.894531 Z M 21.566406 -6.71875 C 19.519531 -5.183594 17.023438 -3.96875 14.398438 -3.96875 C 10.558594 -3.96875 8.832031 -6.589844 9.535156 -11.582031 L 10.6875 -19.710938 C 11.519531 -25.789062 13.503906 -28.285156 18.367188 -28.285156 C 22.78125 -28.285156 24.320312 -26.238281 23.679688 -21.632812 Z M 21.566406 -6.71875 "/></g></g></g><g fill="rgb(100%, 100%, 100%)" fill-opacity="1"><g transform="translate(353.936335, 176.564921)"><g><path d="M 18.175781 -32.640625 C 10.046875 -32.640625 6.785156 -27.328125 5.695312 -19.710938 L 4.542969 -11.582031 C 3.519531 -4.414062 6.273438 0.511719 12.992188 0.511719 C 16.191406 0.511719 19.457031 -0.574219 22.464844 -1.984375 C 23.039062 -0.769531 24.0625 0.0625 25.535156 0.0625 C 26.75 0.0625 28.09375 -0.960938 28.09375 -2.433594 C 28.09375 -2.816406 27.96875 -3.136719 27.839844 -3.457031 C 26.6875 -4.414062 26.429688 -5.503906 26.6875 -7.296875 L 31.871094 -43.964844 C 32.0625 -45.308594 31.292969 -46.398438 29.695312 -46.398438 C 28.09375 -46.398438 27.070312 -45.308594 26.878906 -43.964844 L 25.085938 -31.421875 C 22.910156 -32.191406 20.289062 -32.640625 18.175781 -32.640625 Z M 21.695312 -7.296875 C 21.632812 -6.847656 21.566406 -6.335938 21.632812 -5.824219 C 19.328125 -4.671875 16.703125 -3.96875 14.65625 -3.96875 C 10.429688 -3.96875 8.832031 -6.589844 9.535156 -11.582031 L 10.6875 -19.710938 C 11.519531 -25.664062 13.503906 -28.285156 18.175781 -28.285156 C 19.710938 -28.285156 22.464844 -27.839844 24.445312 -26.941406 Z M 21.695312 -7.296875 "/></g></g></g><g fill="rgb(100%, 100%, 100%)" fill-opacity="1"><g transform="translate(423.694366, 176.564921)"><g><path d="M 15.421875 -3.902344 C 10.816406 -3.902344 8.769531 -6.207031 9.28125 -9.792969 L 9.792969 -13.566406 C 11.96875 -13.183594 14.335938 -12.992188 16.253906 -12.992188 C 24.960938 -12.992188 28.542969 -17.472656 28.542969 -24.191406 C 28.542969 -29.503906 25.472656 -32.894531 19.199219 -32.894531 C 11.582031 -32.894531 6.910156 -28.222656 6.015625 -22.078125 L 4.289062 -10.113281 C 3.457031 -4.097656 6.976562 0.511719 14.207031 0.511719 C 17.792969 0.511719 25.152344 -0.574219 25.152344 -3.902344 C 25.152344 -4.929688 24.382812 -5.886719 23.230469 -5.886719 C 22.78125 -5.886719 22.464844 -5.761719 22.335938 -5.695312 C 19.96875 -4.671875 18.109375 -3.902344 15.421875 -3.902344 Z M 23.550781 -23.613281 C 23.550781 -19.839844 21.886719 -17.214844 17.023438 -17.214844 C 15.742188 -17.214844 12.671875 -17.34375 10.304688 -17.664062 L 11.007812 -22.527344 C 11.519531 -26.109375 14.269531 -28.351562 18.429688 -28.351562 C 21.695312 -28.351562 23.550781 -26.941406 23.550781 -23.613281 Z M 23.550781 -23.613281 "/></g></g></g><g fill="rgb(100%, 100%, 100%)" fill-opacity="1"><g transform="translate(490.060598, 176.564921)"><g><path d="M 40.832031 -6.015625 C 40 -0.257812 42.300781 0.511719 43.902344 0.511719 C 45.308594 0.511719 46.589844 -0.640625 46.589844 -1.984375 C 46.589844 -2.433594 46.398438 -2.816406 46.269531 -3.007812 C 45.628906 -3.777344 45.628906 -4.609375 45.820312 -6.015625 L 48.0625 -22.015625 C 48.957031 -28.480469 45.820312 -32.894531 38.910156 -32.894531 C 35.328125 -32.894531 32.125 -31.679688 29.183594 -29.628906 C 27.839844 -31.742188 25.726562 -32.894531 22.207031 -32.894531 C 18.878906 -32.894531 15.488281 -31.808594 12.480469 -30.015625 C 11.96875 -31.039062 11.199219 -31.742188 10.113281 -31.742188 C 8.640625 -31.742188 7.421875 -30.65625 7.421875 -29.3125 C 7.421875 -28.800781 7.679688 -28.414062 7.742188 -28.222656 C 8.191406 -27.261719 8.769531 -27.261719 8.253906 -23.742188 L 5.183594 -1.984375 C 4.992188 -0.640625 5.695312 0.449219 7.359375 0.449219 C 9.023438 0.449219 9.984375 -0.640625 10.175781 -1.984375 L 13.246094 -23.742188 C 13.3125 -24.320312 13.3125 -24.960938 13.3125 -25.726562 C 15.296875 -27.070312 18.304688 -28.285156 21.121094 -28.285156 C 25.664062 -28.285156 25.984375 -25.085938 25.34375 -20.542969 L 22.71875 -1.984375 C 22.527344 -0.640625 23.230469 0.449219 24.894531 0.449219 C 26.558594 0.449219 27.519531 -0.640625 27.710938 -1.984375 L 30.527344 -22.015625 C 30.65625 -23.039062 30.65625 -24 30.589844 -24.894531 C 32.382812 -26.816406 35.390625 -28.285156 38.140625 -28.285156 C 42.046875 -28.285156 43.582031 -25.472656 43.070312 -21.886719 Z M 40.832031 -6.015625 "/></g></g></g><g fill="rgb(100%, 100%, 100%)" fill-opacity="1"><g transform="translate(578.377466, 176.564921)"><g><path d="M 24.128906 -6.847656 C 21.949219 -4.800781 19.199219 -3.902344 16.574219 -3.902344 C 12.03125 -3.902344 10.6875 -6.65625 11.328125 -11.199219 L 13.953125 -30.269531 C 14.144531 -31.613281 13.441406 -32.703125 11.839844 -32.703125 C 10.238281 -32.703125 9.152344 -31.613281 8.960938 -30.269531 L 6.335938 -11.199219 C 5.375 -4.542969 7.167969 0.449219 14.910156 0.449219 C 18.175781 0.449219 20.925781 -0.449219 23.421875 -1.921875 L 22.78125 2.558594 C 22.144531 7.230469 19.773438 9.917969 14.785156 9.917969 C 12.542969 9.917969 11.261719 9.214844 9.792969 8.449219 C 9.472656 8.320312 9.152344 8.253906 8.832031 8.253906 C 7.488281 8.253906 6.335938 9.40625 6.335938 10.6875 C 6.335938 13.503906 11.777344 14.335938 14.71875 14.335938 C 22.71875 14.335938 26.878906 9.152344 27.773438 2.558594 L 32.382812 -30.269531 C 32.574219 -31.613281 31.933594 -32.703125 30.269531 -32.703125 C 28.605469 -32.703125 27.582031 -31.613281 27.390625 -30.269531 Z M 24.128906 -6.847656 "/></g></g></g></svg>