<svg width="151" height="180" viewBox="0 0 151 180" fill="none" xmlns="http://www.w3.org/2000/svg">
<g filter="url(#filter0_f_106_106)">
<path d="M64.7848 69.9734C65.5865 68.5848 67.3621 68.109 68.7507 68.9107L91.7981 82.2172C93.1867 83.0189 93.6624 84.7945 92.8607 86.183L55.5321 150.838C54.453 152.707 51.7843 152.787 50.5951 150.986L43.8607 140.786C43.3504 140.014 42.502 139.53 41.5769 139.486L29.8634 138.925C27.6924 138.82 26.4014 136.455 27.4882 134.573L64.7848 69.9734Z" fill="#E4EDFF"/>
<path d="M86.0861 69.9734C85.2844 68.5848 83.5088 68.109 82.1203 68.9107L59.0728 82.2172C57.6843 83.0189 57.2085 84.7945 58.0102 86.183L95.3388 150.838C96.4179 152.707 99.0867 152.787 100.276 150.986L107.01 140.786C107.521 140.014 108.369 139.53 109.294 139.486L121.008 138.925C123.179 138.82 124.47 136.455 123.383 134.573L86.0861 69.9734Z" fill="#E4EDFF"/>
<mask id="mask0_106_106" style="mask-type:alpha" maskUnits="userSpaceOnUse" x="27" y="68" width="97" height="85">
<path d="M64.785 69.9734C65.5867 68.5848 67.3622 68.1091 68.7508 68.9108L91.7982 82.2172C93.1868 83.0189 93.6626 84.7945 92.8609 86.1831L55.5323 150.838C54.4532 152.707 51.7844 152.787 50.5953 150.986L43.8609 140.786C43.3506 140.014 42.5022 139.53 41.5771 139.486L29.8636 138.925C27.6925 138.821 26.4016 136.455 27.4883 134.573L64.785 69.9734Z" fill="#E4EDFF"/>
<path d="M86.0863 69.9734C85.2846 68.5848 83.509 68.1091 82.1204 68.9108L59.073 82.2172C57.6844 83.0189 57.2086 84.7945 58.0103 86.1831L95.3389 150.838C96.418 152.707 99.0868 152.787 100.276 150.986L107.01 140.786C107.521 140.014 108.369 139.53 109.294 139.486L121.008 138.925C123.179 138.821 124.47 136.455 123.383 134.573L86.0863 69.9734Z" fill="#E4EDFF"/>
</mask>
<g mask="url(#mask0_106_106)">
<path d="M70.4981 39.6461C73.3239 36.7267 78.0055 36.7267 80.8313 39.6461L81.6623 40.5046C83.6422 42.5501 86.6426 43.235 89.314 42.2511L90.4352 41.8381C94.2478 40.4339 98.4658 42.4652 99.7451 46.3215L100.121 47.4556C101.018 50.1576 103.424 52.0764 106.257 52.349L107.447 52.4635C111.491 52.8525 114.41 56.5128 113.889 60.5423L113.736 61.7273C113.372 64.5506 114.707 67.3234 117.142 68.7985L118.164 69.4176C121.639 71.5229 122.68 76.0872 120.463 79.4918L119.811 80.493C118.257 82.8784 118.257 85.956 119.811 88.3414L120.463 89.3426C122.68 92.7472 121.639 97.3115 118.164 99.4168L117.142 100.036C114.707 101.511 113.372 104.284 113.736 107.107L113.889 108.292C114.41 112.322 111.491 115.982 107.447 116.371L106.257 116.485C103.424 116.758 101.018 118.677 100.121 121.379L99.7451 122.513C98.4658 126.369 94.2478 128.401 90.4352 126.996L89.314 126.583C86.6426 125.599 83.6422 126.284 81.6623 128.33L80.8313 129.188C78.0055 132.108 73.3239 132.108 70.4981 129.188L69.6671 128.33C67.6871 126.284 64.6868 125.599 62.0154 126.583L60.8942 126.996C57.0815 128.401 52.8636 126.369 51.5843 122.513L51.2081 121.379C50.3117 118.677 47.9056 116.758 45.0719 116.485L43.8825 116.371C39.8382 115.982 36.9193 112.322 37.4399 108.292L37.593 107.107C37.9578 104.284 36.6225 101.511 34.1877 100.036L33.1658 99.4168C29.6908 97.3115 28.649 92.7472 30.8664 89.3426L31.5185 88.3415C33.0721 85.956 33.0721 82.8784 31.5185 80.493L30.8664 79.4918C28.649 76.0872 29.6907 71.5229 33.1658 69.4176L34.1877 68.7985C36.6225 67.3234 37.9578 64.5506 37.593 61.7273L37.4399 60.5423C36.9193 56.5128 39.8382 52.8525 43.8825 52.4635L45.0719 52.349C47.9056 52.0764 50.3117 50.1576 51.2081 47.4556L51.5843 46.3215C52.8636 42.4652 57.0815 40.4339 60.8942 41.8381L62.0154 42.2511C64.6868 43.235 67.6871 42.5501 69.6671 40.5046L70.4981 39.6461Z" fill="#CBDCFF"/>
</g>
<path d="M70.4874 29.7352C73.3132 26.8158 77.9948 26.8158 80.8206 29.7352L81.6516 30.5937C83.6316 32.6393 86.6319 33.3241 89.3033 32.3402L90.4245 31.9272C94.2372 30.523 98.4551 32.5543 99.7344 36.4106L100.111 37.5447C101.007 40.2467 103.413 42.1655 106.247 42.4381L107.436 42.5526C111.48 42.9416 114.399 46.6019 113.879 50.6314L113.726 51.8164C113.361 54.6397 114.696 57.4125 117.131 58.8876L118.153 59.5067C121.628 61.6121 122.67 66.1763 120.452 69.5809L119.8 70.5821C118.247 72.9676 118.247 76.0451 119.8 78.4306L120.452 79.4318C122.67 82.8363 121.628 87.4006 118.153 89.5059L117.131 90.125C114.696 91.6002 113.361 94.3729 113.726 97.1963L113.879 98.3812C114.399 102.411 111.48 106.071 107.436 106.46L106.247 106.574C103.413 106.847 101.007 108.766 100.111 111.468L99.7344 112.602C98.4551 116.458 94.2372 118.49 90.4245 117.085L89.3033 116.672C86.6319 115.689 83.6316 116.373 81.6516 118.419L80.8206 119.277C77.9948 122.197 73.3132 122.197 70.4874 119.277L69.6564 118.419C67.6765 116.373 64.6761 115.689 62.0047 116.672L60.8835 117.085C57.0709 118.49 52.8529 116.458 51.5736 112.602L51.1974 111.468C50.3011 108.766 47.895 106.847 45.0612 106.574L43.8719 106.46C39.8275 106.071 36.9086 102.411 37.4292 98.3812L37.5823 97.1963C37.9471 94.3729 36.6118 91.6002 34.177 90.125L33.1551 89.5059C29.6801 87.4006 28.6383 82.8363 30.8557 79.4318L31.5078 78.4306C33.0615 76.0451 33.0615 72.9676 31.5078 70.5821L30.8557 69.5809C28.6383 66.1763 29.6801 61.6121 33.1551 59.5067L34.177 58.8876C36.6118 57.4125 37.9471 54.6397 37.5823 51.8164L37.4292 50.6314C36.9086 46.6019 39.8275 42.9416 43.8719 42.5526L45.0612 42.4381C47.895 42.1655 50.3011 40.2467 51.1974 37.5447L51.5736 36.4106C52.8529 32.5543 57.0709 30.523 60.8835 31.9272L62.0047 32.3402C64.6761 33.3241 67.6765 32.6393 69.6564 30.5937L70.4874 29.7352Z" fill="url(#paint0_linear_106_106)"/>
<path d="M80.0133 30.5166L80.8443 31.3751C83.1337 33.7403 86.6028 34.5321 89.6916 33.3945L90.8128 32.9815C94.0297 31.7967 97.5887 33.5106 98.6681 36.7644L99.0443 37.8984C100.081 41.0227 102.863 43.2413 106.139 43.5565L107.329 43.6709C110.741 43.9992 113.204 47.0875 112.765 50.4874L112.611 51.6724C112.19 54.9369 113.734 58.1429 116.549 59.8485L117.571 60.4677C120.503 62.244 121.382 66.0951 119.511 68.9677L118.859 69.9689C117.062 72.7271 117.062 76.2855 118.859 79.0437L119.511 80.0449C121.382 82.9175 120.503 86.7686 117.571 88.545L116.549 89.1641C113.734 90.8697 112.19 94.0757 112.611 97.3402L112.765 98.5252C113.204 101.925 110.741 105.013 107.329 105.342L106.139 105.456C102.863 105.771 100.081 107.99 99.0443 111.114L98.6681 112.248C97.5887 115.502 94.0297 117.216 90.8128 116.031L89.6916 115.618C86.6028 114.481 83.1337 115.272 80.8443 117.638L80.0133 118.496C77.6291 120.959 73.679 120.959 71.2947 118.496L70.4637 117.638C68.1744 115.272 64.7052 114.481 61.6164 115.618L60.4952 116.031C57.2783 117.216 53.7194 115.502 52.64 112.248L52.2638 111.114C51.2274 107.99 48.4453 105.771 45.1688 105.456L43.9795 105.342C40.5671 105.013 38.1042 101.925 38.5435 98.5252L38.6966 97.3402C39.1184 94.0757 37.5744 90.8697 34.7592 89.1641L33.7373 88.545C30.8052 86.7686 29.9262 82.9175 31.7972 80.0449L32.4493 79.0437C34.2457 76.2855 34.2457 72.7271 32.4493 69.9689L31.7972 68.9677C29.9262 66.0951 30.8052 62.244 33.7373 60.4677L34.7592 59.8485C37.5744 58.1429 39.1184 54.9369 38.6966 51.6724L38.5435 50.4874C38.1042 47.0875 40.5671 43.9992 43.9795 43.6709L45.1688 43.5565C48.4453 43.2413 51.2274 41.0227 52.2638 37.8984L52.64 36.7644C53.7194 33.5106 57.2783 31.7967 60.4952 32.9815L61.6164 33.3945C64.7052 34.5321 68.1744 33.7403 70.4637 31.3751L71.2947 30.5166C73.679 28.0534 77.6291 28.0534 80.0133 30.5166Z" stroke="#F88A2E" stroke-opacity="0.36" stroke-width="2.24703"/>
<mask id="mask1_106_106" style="mask-type:alpha" maskUnits="userSpaceOnUse" x="29" y="27" width="93" height="95">
<path d="M70.4871 29.7352C73.3129 26.8158 77.9945 26.8158 80.8203 29.7352L81.6513 30.5937C83.6313 32.6393 86.6316 33.3241 89.3031 32.3402L90.4243 31.9272C94.2369 30.523 98.4549 32.5543 99.7342 36.4106L100.11 37.5447C101.007 40.2467 103.413 42.1655 106.247 42.4381L107.436 42.5526C111.48 42.9416 114.399 46.6019 113.879 50.6314L113.725 51.8164C113.361 54.6397 114.696 57.4125 117.131 58.8876L118.153 59.5067C121.628 61.6121 122.669 66.1763 120.452 69.5809L119.8 70.5821C118.246 72.9676 118.246 76.0451 119.8 78.4306L120.452 79.4318C122.669 82.8363 121.628 87.4006 118.153 89.5059L117.131 90.125C114.696 91.6002 113.361 94.3729 113.725 97.1963L113.879 98.3812C114.399 102.411 111.48 106.071 107.436 106.46L106.247 106.574C103.413 106.847 101.007 108.766 100.11 111.468L99.7342 112.602C98.4549 116.458 94.2369 118.49 90.4242 117.085L89.3031 116.672C86.6317 115.689 83.6313 116.373 81.6513 118.419L80.8204 119.277C77.9946 122.197 73.3129 122.197 70.4871 119.277L69.6561 118.419C67.6762 116.373 64.6758 115.689 62.0044 116.672L60.8832 117.085C57.0706 118.49 52.8526 116.458 51.5733 112.602L51.1971 111.468C50.3008 108.766 47.8947 106.847 45.0609 106.574L43.8716 106.46C39.8273 106.071 36.9083 102.411 37.429 98.3812L37.5821 97.1963C37.9468 94.3729 36.6116 91.6002 34.1767 90.125L33.1548 89.5059C29.6798 87.4006 28.6381 82.8363 30.8555 79.4318L31.5075 78.4306C33.0612 76.0451 33.0612 72.9676 31.5075 70.5821L30.8555 69.5809C28.6381 66.1763 29.6798 61.6121 33.1548 59.5067L34.1767 58.8876C36.6116 57.4125 37.9468 54.6397 37.5821 51.8164L37.429 50.6314C36.9083 46.6019 39.8273 42.9416 43.8716 42.5526L45.0609 42.4381C47.8947 42.1655 50.3008 40.2467 51.1971 37.5447L51.5733 36.4106C52.8526 32.5543 57.0706 30.523 60.8832 31.9272L62.0044 32.3402C64.6758 33.3241 67.6762 32.6393 69.6561 30.5937L70.4871 29.7352Z" fill="#CFC69C"/>
<path d="M80.0131 30.5166L80.8441 31.3751C83.1334 33.7403 86.6025 34.5321 89.6914 33.3945L90.8126 32.9815C94.0295 31.7967 97.5884 33.5106 98.6678 36.7644L99.044 37.8984C100.08 41.0227 102.862 43.2413 106.139 43.5565L107.328 43.6709C110.741 43.9992 113.204 47.0875 112.764 50.4874L112.611 51.6724C112.189 54.9369 113.733 58.1429 116.549 59.8485L117.571 60.4677C120.503 62.244 121.382 66.0951 119.511 68.9677L118.859 69.9689C117.062 72.7271 117.062 76.2855 118.859 79.0437L119.511 80.0449C121.382 82.9175 120.503 86.7686 117.571 88.545L116.549 89.1641C113.733 90.8697 112.189 94.0757 112.611 97.3402L112.764 98.5252C113.204 101.925 110.741 105.013 107.328 105.342L106.139 105.456C102.862 105.771 100.08 107.99 99.044 111.114L98.6678 112.248C97.5884 115.502 94.0295 117.216 90.8125 116.031L89.6914 115.618C86.6025 114.481 83.1334 115.272 80.8441 117.638L80.0131 118.496C77.6288 120.959 73.6787 120.959 71.2944 118.496L70.4634 117.638C68.1741 115.272 64.7049 114.481 61.6161 115.618L60.4949 116.031C57.278 117.216 53.7191 115.502 52.6397 112.248L52.2635 111.114C51.2271 107.99 48.445 105.771 45.1685 105.456L43.9792 105.342C40.5668 105.013 38.1039 101.925 38.5432 98.5252L38.6963 97.3402C39.1181 94.0757 37.5742 90.8697 34.7589 89.1641L33.737 88.545C30.805 86.7686 29.926 82.9175 31.7969 80.0449L32.449 79.0437C34.2454 76.2855 34.2454 72.7271 32.449 69.9689L31.7969 68.9677C29.926 66.0951 30.8049 62.244 33.737 60.4677L34.7589 59.8485C37.5742 58.1429 39.1181 54.9369 38.6963 51.6724L38.5432 50.4874C38.1039 47.0875 40.5668 43.9992 43.9792 43.6709L45.1685 43.5565C48.445 43.2413 51.2271 41.0227 52.2635 37.8984L52.6397 36.7644C53.7191 33.5106 57.278 31.7967 60.4949 32.9815L61.6161 33.3945C64.7049 34.5321 68.1741 33.7403 70.4634 31.3751L71.2944 30.5166C73.6787 28.0534 77.6288 28.0534 80.0131 30.5166Z" stroke="#F88A2E" stroke-opacity="0.36" stroke-width="2.24703"/>
</mask>
<g mask="url(#mask1_106_106)">
<circle cx="67.6317" cy="65.1132" r="44.3349" fill="url(#paint1_linear_106_106)"/>
</g>
<g opacity="0.5">
<mask id="mask2_106_106" style="mask-type:alpha" maskUnits="userSpaceOnUse" x="37" y="32" width="71" height="72">
<path d="M75.7155 34.4953L76.3495 35.1504C78.0964 36.955 80.7434 37.5592 83.1003 36.6912L83.9558 36.3761C86.4104 35.472 89.1259 36.7798 89.9495 39.2625L90.2366 40.1278C91.0274 42.5117 93.1501 44.2046 95.6502 44.4451L96.5577 44.5324C99.1615 44.7829 101.041 47.1393 100.705 49.7336L100.589 50.6377C100.267 53.1286 101.445 55.5749 103.593 56.8763L104.373 57.3487C106.61 58.7041 107.281 61.6426 105.853 63.8345L105.356 64.5984C103.985 66.703 103.985 69.4181 105.356 71.5227L105.853 72.2867C107.281 74.4786 106.61 77.417 104.373 78.7724L103.593 79.2449C101.445 80.5463 100.267 82.9925 100.589 85.4835L100.705 86.3876C101.041 88.9818 99.1615 91.3383 96.5577 91.5888L95.6502 91.6761C93.1501 91.9166 91.0274 93.6095 90.2366 95.9933L89.9495 96.8587C89.1259 99.3414 86.4104 100.649 83.9558 99.7451L83.1003 99.43C80.7434 98.562 78.0964 99.1661 76.3495 100.971L75.7155 101.626C73.8962 103.505 70.8822 103.505 69.0629 101.626L68.4289 100.971C66.682 99.1661 64.035 98.562 61.6781 99.43L60.8226 99.7451C58.368 100.649 55.6525 99.3414 54.8289 96.8587L54.5418 95.9933C53.751 93.6095 51.6283 91.9166 49.1282 91.6761L48.2207 91.5888C45.6169 91.3383 43.7377 88.9818 44.0729 86.3876L44.1897 85.4834C44.5115 82.9925 43.3335 80.5463 41.1854 79.2449L40.4056 78.7724C38.1684 77.417 37.4977 74.4786 38.9253 72.2867L39.4228 71.5227C40.7936 69.4181 40.7936 66.703 39.4228 64.5984L38.9253 63.8345C37.4977 61.6426 38.1684 58.7041 40.4056 57.3487L41.1854 56.8763C43.3335 55.5749 44.5115 53.1286 44.1897 50.6377L44.0729 49.7336C43.7377 47.1393 45.6169 44.7829 48.2207 44.5324L49.1282 44.4451C51.6283 44.2046 53.751 42.5117 54.5418 40.1278L54.8289 39.2625C55.6525 36.7798 58.368 35.472 60.8226 36.3761L61.6781 36.6912C64.035 37.5592 66.682 36.955 68.4289 35.1504L69.0629 34.4953C70.8822 32.6158 73.8962 32.6158 75.7155 34.4953Z" fill="#CFC69C" stroke="#FFBB42" stroke-width="1.71454"/>
</mask>
<g mask="url(#mask2_106_106)">
<g style="mix-blend-mode:screen">
<circle cx="66.2681" cy="60.8934" r="33.8287" fill="url(#paint2_linear_106_106)"/>
</g>
</g>
</g>
<g filter="url(#filter1_d_106_106)">
<path d="M72.8712 58.8824C74.0515 56.6453 77.2555 56.6453 78.4358 58.8824L81.319 64.3469C81.7741 65.2097 82.6038 65.8124 83.5649 65.9787L89.6529 67.0321C92.1454 67.4634 93.1354 70.5106 91.3725 72.3244L87.0664 76.7551C86.3865 77.4546 86.0696 78.4299 86.2085 79.3954L87.088 85.5109C87.448 88.0146 84.8559 89.8979 82.5861 88.7818L77.0416 86.0555C76.1663 85.6251 75.1408 85.6251 74.2654 86.0555L68.721 88.7818C66.4511 89.8979 63.859 88.0146 64.219 85.5109L65.0985 79.3954C65.2374 78.4299 64.9205 77.4546 64.2406 76.7551L59.9345 72.3244C58.1716 70.5105 59.1617 67.4634 61.6541 67.0321L67.7421 65.9787C68.7032 65.8124 69.5329 65.2097 69.9881 64.3469L72.8712 58.8824Z" fill="white"/>
</g>
<mask id="mask3_106_106" style="mask-type:alpha" maskUnits="userSpaceOnUse" x="59" y="57" width="34" height="33">
<path d="M72.8718 58.8824C74.0522 56.6452 77.2561 56.6453 78.4365 58.8824L81.3196 64.3469C81.7748 65.2097 82.6044 65.8124 83.5656 65.9787L89.6536 67.0321C92.146 67.4634 93.1361 70.5105 91.3732 72.3244L87.067 76.7551C86.3872 77.4546 86.0703 78.4299 86.2091 79.3954L87.0886 85.5109C87.4487 88.0146 84.8566 89.8979 82.5867 88.7817L77.0422 86.0555C76.1669 85.6251 75.1414 85.6251 74.266 86.0555L68.7216 88.7818C66.4517 89.8979 63.8596 88.0146 64.2197 85.5109L65.0992 79.3954C65.238 78.4299 64.9211 77.4546 64.2413 76.7551L59.9351 72.3244C58.1722 70.5105 59.1623 67.4634 61.6547 67.0321L67.7427 65.9787C68.7039 65.8124 69.5335 65.2097 69.9887 64.3469L72.8718 58.8824Z" fill="white"/>
</mask>
<g mask="url(#mask3_106_106)">
<path d="M54.9817 89.5614L74.1601 83.048C83.7563 79.7889 89.671 70.158 88.2378 60.1253L97.6753 80.3486L90.7095 94.9543L54.9817 89.5614Z" fill="#E4EDFF"/>
</g>
<circle cx="75.6655" cy="74.5063" r="28.3126" stroke="url(#paint3_linear_106_106)" stroke-width="4.04466"/>
<circle cx="75.6655" cy="74.5063" r="31.4585" stroke="white" stroke-width="2.24703"/>
</g>
<path d="M67.7901 60.5976C68.7154 58.995 70.7645 58.446 72.367 59.3712L98.9652 74.7277C100.568 75.6529 101.117 77.702 100.192 79.3045L57.112 153.921C55.8666 156.078 52.7867 156.17 51.4143 154.091L43.6424 142.32C43.0535 141.428 42.0744 140.871 41.0068 140.82L27.4886 140.172C24.9831 140.052 23.4932 137.322 24.7474 135.15L67.7901 60.5976Z" fill="#F43F5E" fill-opacity="0.65"/>
<path d="M92.3736 60.5976C91.4484 58.995 89.3993 58.446 87.7968 59.3712L61.1986 74.7277C59.5961 75.6529 59.047 77.702 59.9722 79.3045L103.052 153.921C104.297 156.078 107.377 156.17 108.749 154.091L116.521 142.32C117.11 141.428 118.089 140.871 119.157 140.82L132.675 140.172C135.181 140.052 136.671 137.322 135.416 135.15L92.3736 60.5976Z" fill="#F43F5E" fill-opacity="0.65"/>
<mask id="mask4_106_106" style="mask-type:alpha" maskUnits="userSpaceOnUse" x="24" y="58" width="112" height="98">
<path d="M67.7903 60.5976C68.7155 58.995 70.7646 58.446 72.3671 59.3712L98.9653 74.7277C100.568 75.6529 101.117 77.702 100.192 79.3045L57.1121 153.921C55.8668 156.078 52.7868 156.17 51.4145 154.091L43.6425 142.32C43.0536 141.428 42.0745 140.871 41.0069 140.82L27.4887 140.172C24.9832 140.052 23.4934 137.322 24.7476 135.15L67.7903 60.5976Z" fill="#F7F9FF"/>
<path d="M92.3737 60.5976C91.4485 58.995 89.3994 58.446 87.7969 59.3712L61.1987 74.7277C59.5962 75.6529 59.0471 77.702 59.9723 79.3045L103.052 153.921C104.297 156.078 107.377 156.17 108.75 154.091L116.521 142.32C117.11 141.428 118.09 140.871 119.157 140.82L132.675 140.172C135.181 140.052 136.671 137.322 135.416 135.15L92.3737 60.5976Z" fill="#F7F9FF"/>
</mask>
<g mask="url(#mask4_106_106)">
<path d="M74.3847 25.5979C77.6458 22.2287 83.0487 22.2287 86.3099 25.5979L87.2689 26.5887C89.5539 28.9494 93.0165 29.7397 96.0995 28.6042L97.3934 28.1276C101.793 26.5071 106.661 28.8513 108.138 33.3018L108.572 34.6105C109.606 37.7289 112.383 39.9433 115.653 40.2579L117.026 40.39C121.693 40.839 125.062 45.0631 124.461 49.7134L124.284 51.081C123.863 54.3393 125.404 57.5392 128.214 59.2417L129.394 59.9562C133.404 62.3858 134.606 67.6533 132.047 71.5824L131.295 72.7378C129.502 75.4908 129.502 79.0424 131.295 81.7955L132.047 82.9509C134.606 86.88 133.404 92.1474 129.394 94.5771L128.214 95.2916C125.404 96.994 123.863 100.194 124.284 103.452L124.461 104.82C125.062 109.47 121.693 113.694 117.026 114.143L115.653 114.275C112.383 114.59 109.606 116.804 108.572 119.923L108.138 121.231C106.661 125.682 101.793 128.026 97.3934 126.406L96.0995 125.929C93.0165 124.794 89.5539 125.584 87.2689 127.945L86.3099 128.935C83.0487 132.305 77.6458 132.305 74.3847 128.935L73.4257 127.945C71.1407 125.584 67.6781 124.794 64.5951 125.929L63.3012 126.406C58.9011 128.026 54.0333 125.682 52.5569 121.231L52.1228 119.923C51.0883 116.804 48.3115 114.59 45.0412 114.275L43.6686 114.143C39.0012 113.694 35.6326 109.47 36.2334 104.82L36.4101 103.452C36.8311 100.194 35.2901 96.994 32.4801 95.2916L31.3008 94.5771C27.2904 92.1474 26.0882 86.88 28.6472 82.9509L29.3997 81.7955C31.1928 79.0425 31.1928 75.4908 29.3997 72.7378L28.6472 71.5824C26.0882 67.6533 27.2904 62.3858 31.3008 59.9562L32.4801 59.2417C35.2901 57.5392 36.8311 54.3393 36.4101 51.081L36.2334 49.7134C35.6326 45.0631 39.0012 40.839 43.6686 40.39L45.0412 40.2579C48.3115 39.9433 51.0883 37.7289 52.1228 34.6105L52.5569 33.3018C54.0333 28.8513 58.9011 26.5071 63.3012 28.1276L64.5951 28.6042C67.6781 29.7397 71.1407 28.9494 73.4257 26.5887L74.3847 25.5979Z" fill="#F43F5E"/>
</g>
<path d="M74.3726 14.1601C77.6337 10.7909 83.0366 10.7909 86.2978 14.1601L87.2568 15.1509C89.5418 17.5116 93.0044 18.3019 96.0874 17.1664L97.3813 16.6898C101.781 15.0693 106.649 17.4135 108.126 21.864L108.56 23.1727C109.594 26.2911 112.371 28.5055 115.641 28.8201L117.014 28.9522C121.681 29.4012 125.05 33.6253 124.449 38.2756L124.272 39.6432C123.851 42.9015 125.392 46.1014 128.202 47.8038L129.382 48.5183C133.392 50.948 134.594 56.2154 132.035 60.1445L131.283 61.3C129.49 64.053 129.49 67.6046 131.283 70.3577L132.035 71.5131C134.594 75.4422 133.392 80.7096 129.382 83.1393L128.202 83.8538C125.392 85.5562 123.851 88.7561 124.272 92.0145L124.449 93.382C125.05 98.0323 121.681 102.256 117.014 102.705L115.641 102.838C112.371 103.152 109.594 105.367 108.56 108.485L108.126 109.794C106.649 114.244 101.781 116.588 97.3813 114.968L96.0874 114.491C93.0044 113.356 89.5418 114.146 87.2568 116.507L86.2978 117.498C83.0366 120.867 77.6337 120.867 74.3726 117.498L73.4136 116.507C71.1286 114.146 67.666 113.356 64.583 114.491L63.2891 114.968C58.889 116.588 54.0212 114.244 52.5448 109.794L52.1107 108.485C51.0762 105.367 48.2994 103.152 45.0291 102.838L43.6565 102.705C38.9891 102.256 35.6205 98.0323 36.2213 93.382L36.398 92.0145C36.819 88.7561 35.278 85.5562 32.468 83.8538L31.2887 83.1393C27.2783 80.7096 26.0761 75.4422 28.6351 71.5131L29.3876 70.3577C31.1807 67.6046 31.1807 64.053 29.3876 61.3L28.6351 60.1445C26.0761 56.2154 27.2783 50.948 31.2887 48.5184L32.468 47.8038C35.278 46.1014 36.819 42.9015 36.398 39.6432L36.2213 38.2756C35.6205 33.6253 38.9891 29.4012 43.6565 28.9522L45.0291 28.8201C48.2994 28.5055 51.0762 26.2911 52.1107 23.1727L52.5448 21.864C54.0212 17.4135 58.889 15.0693 63.2891 16.6898L64.583 17.1664C67.666 18.3019 71.1286 17.5116 73.4136 15.1509L74.3726 14.1601Z" fill="url(#paint4_linear_106_106)"/>
<path d="M85.3661 15.0619L86.3251 16.0527C88.9672 18.7822 92.9708 19.696 96.5355 18.3831L97.8294 17.9065C101.542 16.5392 105.649 18.5171 106.895 22.2722L107.329 23.581C108.525 27.1866 111.736 29.747 115.517 30.1108L116.89 30.2428C120.828 30.6217 123.67 34.1858 123.163 38.1095L122.986 39.477C122.5 43.2445 124.281 46.9444 127.53 48.9128L128.71 49.6273C132.094 51.6774 133.108 56.1217 130.949 59.4369L130.196 60.5924C128.123 63.7755 128.123 67.8821 130.196 71.0653L130.949 72.2207C133.108 75.5359 132.094 79.9803 128.71 82.0303L127.53 82.7448C124.281 84.7132 122.5 88.4132 122.986 92.1806L123.163 93.5481C123.67 97.4719 120.828 101.036 116.89 101.415L115.517 101.547C111.736 101.911 108.525 104.471 107.329 108.077L106.895 109.385C105.649 113.141 101.542 115.118 97.8294 113.751L96.5355 113.275C92.9708 111.962 88.9672 112.875 86.3251 115.605L85.3661 116.596C82.6145 119.439 78.0558 119.439 75.3042 116.596L74.3452 115.605C71.7032 112.875 67.6996 111.962 64.1349 113.275L62.8409 113.751C59.1284 115.118 55.0212 113.141 53.7755 109.385L53.3413 108.077C52.1453 104.471 48.9346 101.911 45.1533 101.547L43.7807 101.415C39.8426 101.036 37.0003 97.4719 37.5072 93.5481L37.6839 92.1806C38.1707 88.4132 36.3889 84.7132 33.1399 82.7448L31.9605 82.0303C28.5768 79.9803 27.5624 75.5359 29.7216 72.2207L30.4741 71.0653C32.5473 67.8821 32.5473 63.7755 30.4741 60.5924L29.7216 59.4369C27.5624 56.1217 28.5768 51.6774 31.9605 49.6273L33.1399 48.9128C36.3889 46.9444 38.1707 43.2445 37.6839 39.477L37.5072 38.1095C37.0003 34.1858 39.8426 30.6217 43.7807 30.2428L45.1533 30.1108C48.9346 29.747 52.1453 27.1866 53.3413 23.581L53.7755 22.2722C55.0212 18.5171 59.1284 16.5392 62.8409 17.9065L64.1349 18.3831C67.6996 19.696 71.7032 18.7822 74.3452 16.0527L75.3042 15.0619C78.0558 12.2191 82.6145 12.2191 85.3661 15.0619Z" stroke="#F88A2E" stroke-opacity="0.36" stroke-width="2.59322"/>
<mask id="mask5_106_106" style="mask-type:alpha" maskUnits="userSpaceOnUse" x="27" y="11" width="107" height="110">
<path d="M74.372 14.1601C77.6331 10.7909 83.036 10.7909 86.2971 14.1601L87.2562 15.1509C89.5412 17.5116 93.0038 18.3019 96.0867 17.1664L97.3807 16.6898C101.781 15.0693 106.649 17.4135 108.125 21.864L108.559 23.1727C109.593 26.2911 112.37 28.5055 115.641 28.8201L117.013 28.9522C121.681 29.4012 125.049 33.6253 124.448 38.2756L124.272 39.6432C123.851 42.9015 125.392 46.1014 128.202 47.8038L129.381 48.5183C133.391 50.948 134.594 56.2154 132.035 60.1445L131.282 61.3C129.489 64.053 129.489 67.6046 131.282 70.3577L132.035 71.5131C134.594 75.4422 133.391 80.7096 129.381 83.1393L128.202 83.8538C125.392 85.5562 123.851 88.7561 124.272 92.0145L124.448 93.382C125.049 98.0323 121.681 102.256 117.013 102.705L115.641 102.838C112.37 103.152 109.593 105.367 108.559 108.485L108.125 109.794C106.649 114.244 101.781 116.588 97.3807 114.968L96.0867 114.491C93.0038 113.356 89.5412 114.146 87.2562 116.507L86.2971 117.498C83.036 120.867 77.6331 120.867 74.372 117.498L73.4129 116.507C71.1279 114.146 67.6653 113.356 64.5824 114.491L63.2884 114.968C58.8884 116.588 54.0206 114.244 52.5442 109.794L52.1101 108.485C51.0756 105.367 48.2988 103.152 45.0285 102.838L43.6559 102.705C38.9885 102.256 35.6199 98.0323 36.2207 93.382L36.3974 92.0145C36.8184 88.7561 35.2774 85.5562 32.4674 83.8538L31.2881 83.1393C27.2777 80.7096 26.0754 75.4422 28.6345 71.5131L29.387 70.3577C31.18 67.6046 31.18 64.053 29.387 61.3L28.6345 60.1445C26.0754 56.2154 27.2777 50.948 31.2881 48.5184L32.4674 47.8038C35.2774 46.1014 36.8184 42.9015 36.3974 39.6432L36.2207 38.2756C35.6199 33.6253 38.9885 29.4012 43.6559 28.9522L45.0285 28.8201C48.2988 28.5055 51.0756 26.2911 52.1101 23.1727L52.5442 21.864C54.0206 17.4135 58.8884 15.0693 63.2884 16.6898L64.5824 17.1664C67.6653 18.3019 71.1279 17.5116 73.4129 15.1509L74.372 14.1601Z" fill="#CFC69C"/>
<path d="M85.3655 15.0619L86.3245 16.0527C88.9665 18.7822 92.9702 19.696 96.5349 18.3831L97.8288 17.9065C101.541 16.5392 105.649 18.5171 106.894 22.2722L107.328 23.581C108.524 27.1866 111.735 29.747 115.516 30.1108L116.889 30.2428C120.827 30.6217 123.669 34.1858 123.162 38.1095L122.986 39.477C122.499 43.2445 124.281 46.9444 127.53 48.9128L128.709 49.6273C132.093 51.6774 133.107 56.1217 130.948 59.4369L130.196 60.5924C128.122 63.7755 128.122 67.8821 130.196 71.0653L130.948 72.2207C133.107 75.5359 132.093 79.9803 128.709 82.0303L127.53 82.7448C124.281 84.7132 122.499 88.4132 122.986 92.1806L123.162 93.5481C123.669 97.4719 120.827 101.036 116.889 101.415L115.516 101.547C111.735 101.911 108.524 104.471 107.328 108.077L106.894 109.385C105.649 113.141 101.541 115.118 97.8288 113.751L96.5349 113.275C92.9702 111.962 88.9665 112.875 86.3245 115.605L85.3655 116.596C82.6139 119.439 78.0552 119.439 75.3036 116.596L74.3446 115.605C71.7026 112.875 67.6989 111.962 64.1342 113.275L62.8403 113.751C59.1278 115.118 55.0206 113.141 53.7749 109.385L53.3407 108.077C52.1446 104.471 48.934 101.911 45.1526 101.547L43.7801 101.415C39.842 101.036 36.9997 97.4719 37.5066 93.5481L37.6833 92.1806C38.1701 88.4132 36.3883 84.7132 33.1393 82.7448L31.9599 82.0303C28.5762 79.9803 27.5618 75.5359 29.7209 72.2207L30.4735 71.0653C32.5467 67.8821 32.5467 63.7755 30.4735 60.5924L29.7209 59.4369C27.5618 56.1217 28.5762 51.6774 31.9599 49.6273L33.1393 48.9128C36.3883 46.9444 38.1701 43.2445 37.6833 39.477L37.5066 38.1095C36.9997 34.1858 39.842 30.6217 43.7801 30.2428L45.1526 30.1108C48.934 29.747 52.1446 27.1866 53.3407 23.581L53.7749 22.2722C55.0206 18.5171 59.1278 16.5392 62.8403 17.9065L64.1342 18.3831C67.6989 19.696 71.7026 18.7822 74.3446 16.0527L75.3036 15.0619C78.0552 12.2191 82.6139 12.2191 85.3655 15.0619Z" stroke="#F88A2E" stroke-opacity="0.36" stroke-width="2.59322"/>
</mask>
<g mask="url(#mask5_106_106)">
<circle cx="71.0762" cy="54.9885" r="51.1653" fill="url(#paint5_linear_106_106)"/>
</g>
<g opacity="0.5">
<mask id="mask6_106_106" style="mask-type:alpha" maskUnits="userSpaceOnUse" x="36" y="17" width="82" height="83">
<path d="M80.4055 19.6536L81.1372 20.4096C83.1531 22.4923 86.208 23.1895 88.928 22.1877L89.9153 21.8241C92.748 20.7808 95.8819 22.29 96.8324 25.1552L97.1637 26.1539C98.0763 28.905 100.526 30.8587 103.411 31.1362L104.459 31.237C107.464 31.5261 109.632 34.2456 109.246 37.2395L109.111 38.283C108.739 41.1576 110.099 43.9807 112.578 45.4827L113.478 46.0279C116.06 47.5921 116.834 50.9833 115.186 53.5129L114.612 54.3945C113.03 56.8233 113.03 59.9568 114.612 62.3856L115.186 63.2672C116.834 65.7968 116.06 69.188 113.478 70.7522L112.578 71.2974C110.099 72.7994 108.739 75.6225 109.111 78.4972L109.246 79.5406C109.632 82.5345 107.464 85.254 104.459 85.5431L103.411 85.6439C100.526 85.9214 98.0764 87.8751 97.1637 90.6262L96.8324 91.6249C95.8819 94.4901 92.748 95.9993 89.9153 94.956L88.928 94.5924C86.208 93.5906 83.1531 94.2878 81.1372 96.3706L80.4055 97.1265C78.3059 99.2956 74.8275 99.2956 72.728 97.1265L71.9962 96.3706C69.9803 94.2878 66.9254 93.5906 64.2055 94.5924L63.2182 94.956C60.3854 95.9993 57.2515 94.4901 56.301 91.6249L55.9697 90.6262C55.0571 87.8751 52.6073 85.9214 49.722 85.6439L48.6747 85.5431C45.6698 85.254 43.5011 82.5345 43.8879 79.5406L44.0227 78.4972C44.3941 75.6225 43.0346 72.7994 40.5555 71.2974L39.6556 70.7522C37.0737 69.188 36.2997 65.7968 37.9472 63.2672L38.5214 62.3856C40.1033 59.9568 40.1033 56.8233 38.5214 54.3945L37.9472 53.5129C36.2997 50.9833 37.0737 47.5921 39.6556 46.0279L40.5555 45.4827C43.0346 43.9808 44.3941 41.1576 44.0227 38.283L43.8879 37.2395C43.5011 34.2456 45.6698 31.5261 48.6747 31.237L49.722 31.1362C52.6073 30.8587 55.0571 28.905 55.9697 26.1539L56.301 25.1552C57.2515 22.29 60.3854 20.7808 63.2182 21.8241L64.2055 22.1877C66.9254 23.1895 69.9803 22.4923 71.9962 20.4096L72.728 19.6536C74.8275 17.4845 78.3059 17.4845 80.4055 19.6536Z" fill="#CFC69C" stroke="#FFBB42" stroke-width="1.97869"/>
</mask>
<g mask="url(#mask6_106_106)">
<g style="mix-blend-mode:screen">
<circle cx="69.5013" cy="50.1186" r="39.0404" fill="url(#paint6_linear_106_106)"/>
</g>
</g>
</g>
<circle cx="80.3473" cy="65.8289" r="32.6746" stroke="url(#paint7_linear_106_106)" stroke-width="4.6678"/>
<circle cx="80.3473" cy="65.8289" r="36.3051" stroke="white" stroke-width="2.59322"/>
<rect x="95.4056" y="55.657" width="35" height="8" rx="3.63051" transform="rotate(135 95.4056 55.657)" fill="white"/>
<rect x="89.7488" y="80.4056" width="35" height="8" rx="3.63051" transform="rotate(-135 89.7488 80.4056)" fill="white"/>
<defs>
<filter id="filter0_f_106_106" x="0.283068" y="0.733232" width="150.305" height="178.369" filterUnits="userSpaceOnUse" color-interpolation-filters="sRGB">
<feFlood flood-opacity="0" result="BackgroundImageFix"/>
<feBlend mode="normal" in="SourceGraphic" in2="BackgroundImageFix" result="shape"/>
<feGaussianBlur stdDeviation="13.4062" result="effect1_foregroundBlur_106_106"/>
</filter>
<filter id="filter1_d_106_106" x="56.7945" y="56.7552" width="37.7181" height="36.4001" filterUnits="userSpaceOnUse" color-interpolation-filters="sRGB">
<feFlood flood-opacity="0" result="BackgroundImageFix"/>
<feColorMatrix in="SourceAlpha" type="matrix" values="0 0 0 0 0 0 0 0 0 0 0 0 0 0 0 0 0 0 127 0" result="hardAlpha"/>
<feOffset dy="1.79763"/>
<feGaussianBlur stdDeviation="1.12352"/>
<feComposite in2="hardAlpha" operator="out"/>
<feColorMatrix type="matrix" values="0 0 0 0 0.883333 0 0 0 0 0.658672 0 0 0 0 0.0809722 0 0 0 0.41 0"/>
<feBlend mode="normal" in2="BackgroundImageFix" result="effect1_dropShadow_106_106"/>
<feBlend mode="normal" in="SourceGraphic" in2="effect1_dropShadow_106_106" result="shape"/>
</filter>
<linearGradient id="paint0_linear_106_106" x1="35.6568" y1="30.6892" x2="120.595" y2="115.627" gradientUnits="userSpaceOnUse">
<stop stop-color="#FDB83D"/>
<stop offset="1" stop-color="#F9D534"/>
</linearGradient>
<linearGradient id="paint1_linear_106_106" x1="101.561" y1="97.2333" x2="43.6547" y2="28.9214" gradientUnits="userSpaceOnUse">
<stop stop-color="#FFBB42"/>
<stop offset="0.619792" stop-color="#F9B434" stop-opacity="0"/>
</linearGradient>
<linearGradient id="paint2_linear_106_106" x1="92.1574" y1="85.4019" x2="47.9731" y2="33.2781" gradientUnits="userSpaceOnUse">
<stop stop-color="#F88A2E" stop-opacity="0.33"/>
<stop offset="1" stop-color="#F9B434" stop-opacity="0"/>
</linearGradient>
<linearGradient id="paint3_linear_106_106" x1="45.3306" y1="53.8703" x2="106" y2="89.3643" gradientUnits="userSpaceOnUse">
<stop stop-color="#FEB441"/>
<stop offset="0.386364" stop-color="#F88A2E"/>
</linearGradient>
<linearGradient id="paint4_linear_106_106" x1="34.1758" y1="15.261" x2="132.2" y2="113.285" gradientUnits="userSpaceOnUse">
<stop stop-color="#FDB83D"/>
<stop offset="1" stop-color="#F9D534"/>
</linearGradient>
<linearGradient id="paint5_linear_106_106" x1="110.233" y1="92.0573" x2="43.4051" y2="13.2209" gradientUnits="userSpaceOnUse">
<stop stop-color="#FFBB42"/>
<stop offset="0.619792" stop-color="#F9B434" stop-opacity="0"/>
</linearGradient>
<linearGradient id="paint6_linear_106_106" x1="99.3792" y1="78.403" x2="48.3876" y2="18.2488" gradientUnits="userSpaceOnUse">
<stop stop-color="#F88A2E" stop-opacity="0.33"/>
<stop offset="1" stop-color="#F9B434" stop-opacity="0"/>
</linearGradient>
<linearGradient id="paint7_linear_106_106" x1="45.3388" y1="42.0136" x2="115.356" y2="82.9759" gradientUnits="userSpaceOnUse">
<stop stop-color="#FEB441"/>
<stop offset="0.386364" stop-color="#F88A2E"/>
</linearGradient>
</defs>
</svg>
