<svg width="151" height="180" viewBox="0 0 151 180" fill="none" xmlns="http://www.w3.org/2000/svg">
<g filter="url(#filter0_f_102_47)">
<path d="M64.6208 69.9734C65.4225 68.5848 67.1981 68.109 68.5867 68.9107L91.6341 82.2172C93.0227 83.0189 93.4985 84.7945 92.6968 86.183L55.3682 150.838C54.2891 152.707 51.6203 152.787 50.4312 150.986L43.6967 140.786C43.1865 140.014 42.3381 139.53 41.413 139.486L29.6994 138.925C27.5284 138.82 26.2374 136.455 27.3242 134.573L64.6208 69.9734Z" fill="#E4EDFF"/>
<path d="M85.9222 69.9734C85.1205 68.5848 83.3449 68.109 81.9563 68.9107L58.9089 82.2172C57.5203 83.0189 57.0445 84.7945 57.8462 86.183L95.1748 150.838C96.2539 152.707 98.9227 152.787 100.112 150.986L106.846 140.786C107.357 140.014 108.205 139.53 109.13 139.486L120.844 138.925C123.015 138.82 124.306 136.455 123.219 134.573L85.9222 69.9734Z" fill="#E4EDFF"/>
<mask id="mask0_102_47" style="mask-type:alpha" maskUnits="userSpaceOnUse" x="26" y="68" width="98" height="85">
<path d="M64.621 69.9734C65.4227 68.5848 67.1983 68.1091 68.5869 68.9108L91.6343 82.2172C93.0229 83.0189 93.4986 84.7945 92.6969 86.1831L55.3683 150.838C54.2892 152.707 51.6205 152.787 50.4313 150.986L43.6969 140.786C43.1866 140.014 42.3382 139.53 41.4131 139.486L29.6996 138.925C27.5286 138.821 26.2376 136.455 27.3243 134.573L64.621 69.9734Z" fill="#E4EDFF"/>
<path d="M85.9223 69.9734C85.1206 68.5848 83.345 68.1091 81.9564 68.9108L58.909 82.2172C57.5204 83.0189 57.0446 84.7945 57.8463 86.1831L95.1749 150.838C96.254 152.707 98.9228 152.787 100.112 150.986L106.846 140.786C107.357 140.014 108.205 139.53 109.13 139.486L120.844 138.925C123.015 138.821 124.306 136.455 123.219 134.573L85.9223 69.9734Z" fill="#E4EDFF"/>
</mask>
<g mask="url(#mask0_102_47)">
<path d="M70.3341 39.6461C73.1599 36.7267 77.8415 36.7267 80.6673 39.6461L81.4983 40.5046C83.4783 42.5501 86.4786 43.235 89.15 42.2511L90.2712 41.8381C94.0839 40.4339 98.3019 42.4652 99.5811 46.3215L99.9573 47.4556C100.854 50.1576 103.26 52.0764 106.094 52.349L107.283 52.4635C111.327 52.8525 114.246 56.5128 113.726 60.5423L113.572 61.7273C113.208 64.5506 114.543 67.3234 116.978 68.7985L118 69.4176C121.475 71.5229 122.516 76.0872 120.299 79.4918L119.647 80.493C118.093 82.8784 118.093 85.956 119.647 88.3414L120.299 89.3426C122.516 92.7472 121.475 97.3115 118 99.4168L116.978 100.036C114.543 101.511 113.208 104.284 113.572 107.107L113.726 108.292C114.246 112.322 111.327 115.982 107.283 116.371L106.094 116.485C103.26 116.758 100.854 118.677 99.9573 121.379L99.5811 122.513C98.3019 126.369 94.0839 128.401 90.2712 126.996L89.15 126.583C86.4786 125.599 83.4783 126.284 81.4983 128.33L80.6673 129.188C77.8415 132.108 73.1599 132.108 70.3341 129.188L69.5031 128.33C67.5232 126.284 64.5228 125.599 61.8514 126.583L60.7302 126.996C56.9176 128.401 52.6996 126.369 51.4203 122.513L51.0441 121.379C50.1478 118.677 47.7417 116.758 44.9079 116.485L43.7186 116.371C39.6743 115.982 36.7553 112.322 37.2759 108.292L37.429 107.107C37.7938 104.284 36.4585 101.511 34.0237 100.036L33.0018 99.4168C29.5268 97.3115 28.485 92.7472 30.7024 89.3426L31.3545 88.3415C32.9082 85.956 32.9082 82.8784 31.3545 80.493L30.7024 79.4918C28.485 76.0872 29.5268 71.5229 33.0018 69.4176L34.0237 68.7985C36.4585 67.3234 37.7938 64.5506 37.429 61.7273L37.2759 60.5423C36.7553 56.5128 39.6743 52.8525 43.7186 52.4635L44.9079 52.349C47.7417 52.0764 50.1478 50.1576 51.0441 47.4556L51.4203 46.3215C52.6996 42.4652 56.9176 40.4339 60.7302 41.8381L61.8514 42.2511C64.5228 43.235 67.5232 42.5501 69.5031 40.5046L70.3341 39.6461Z" fill="#CBDCFF"/>
</g>
<path d="M70.3234 29.7352C73.1492 26.8158 77.8309 26.8158 80.6567 29.7352L81.4876 30.5937C83.4676 32.6393 86.468 33.3241 89.1394 32.3402L90.2606 31.9272C94.0732 30.523 98.2912 32.5543 99.5705 36.4106L99.9467 37.5447C100.843 40.2467 103.249 42.1655 106.083 42.4381L107.272 42.5526C111.317 42.9416 114.235 46.6019 113.715 50.6314L113.562 51.8164C113.197 54.6397 114.532 57.4125 116.967 58.8876L117.989 59.5067C121.464 61.6121 122.506 66.1763 120.288 69.5809L119.636 70.5821C118.083 72.9676 118.083 76.0451 119.636 78.4306L120.288 79.4318C122.506 82.8363 121.464 87.4006 117.989 89.5059L116.967 90.125C114.532 91.6002 113.197 94.3729 113.562 97.1963L113.715 98.3812C114.235 102.411 111.317 106.071 107.272 106.46L106.083 106.574C103.249 106.847 100.843 108.766 99.9467 111.468L99.5705 112.602C98.2912 116.458 94.0732 118.49 90.2606 117.085L89.1394 116.672C86.468 115.689 83.4676 116.373 81.4876 118.419L80.6567 119.277C77.8309 122.197 73.1492 122.197 70.3234 119.277L69.4925 118.419C67.5125 116.373 64.5121 115.689 61.8407 116.672L60.7195 117.085C56.9069 118.49 52.6889 116.458 51.4096 112.602L51.0334 111.468C50.1371 108.766 47.731 106.847 44.8972 106.574L43.7079 106.46C39.6636 106.071 36.7446 102.411 37.2653 98.3812L37.4184 97.1963C37.7831 94.3729 36.4479 91.6002 34.013 90.125L32.9911 89.5059C29.5161 87.4006 28.4744 82.8363 30.6918 79.4318L31.3438 78.4306C32.8975 76.0451 32.8975 72.9676 31.3438 70.5821L30.6918 69.5809C28.4744 66.1763 29.5161 61.6121 32.9911 59.5067L34.013 58.8876C36.4479 57.4125 37.7831 54.6397 37.4184 51.8164L37.2653 50.6314C36.7446 46.6019 39.6636 42.9416 43.7079 42.5526L44.8972 42.4381C47.731 42.1655 50.1371 40.2467 51.0334 37.5447L51.4096 36.4106C52.6889 32.5543 56.9069 30.523 60.7195 31.9272L61.8407 32.3402C64.5121 33.3241 67.5125 32.6393 69.4925 30.5937L70.3234 29.7352Z" fill="url(#paint0_linear_102_47)"/>
<path d="M79.8494 30.5166L80.6804 31.3751C82.9697 33.7403 86.4388 34.5321 89.5277 33.3945L90.6489 32.9815C93.8658 31.7967 97.4247 33.5106 98.5041 36.7644L98.8803 37.8984C99.9167 41.0227 102.699 43.2413 105.975 43.5565L107.165 43.6709C110.577 43.9992 113.04 47.0875 112.601 50.4874L112.447 51.6724C112.026 54.9369 113.57 58.1429 116.385 59.8485L117.407 60.4677C120.339 62.244 121.218 66.0951 119.347 68.9677L118.695 69.9689C116.898 72.7271 116.898 76.2855 118.695 79.0437L119.347 80.0449C121.218 82.9175 120.339 86.7686 117.407 88.545L116.385 89.1641C113.57 90.8697 112.026 94.0757 112.447 97.3402L112.601 98.5252C113.04 101.925 110.577 105.013 107.165 105.342L105.975 105.456C102.699 105.771 99.9167 107.99 98.8803 111.114L98.5041 112.248C97.4247 115.502 93.8658 117.216 90.6488 116.031L89.5277 115.618C86.4388 114.481 82.9697 115.272 80.6804 117.638L79.8494 118.496C77.4651 120.959 73.515 120.959 71.1307 118.496L70.2997 117.638C68.0104 115.272 64.5412 114.481 61.4524 115.618L60.3312 116.031C57.1143 117.216 53.5554 115.502 52.476 112.248L52.0998 111.114C51.0634 107.99 48.2814 105.771 45.0048 105.456L43.8155 105.342C40.4031 105.013 37.9402 101.925 38.3795 98.5252L38.5326 97.3402C38.9544 94.0757 37.4105 90.8697 34.5952 89.1641L33.5733 88.545C30.6413 86.7686 29.7623 82.9175 31.6332 80.0449L32.2853 79.0437C34.0817 76.2855 34.0817 72.7271 32.2853 69.9689L31.6332 68.9677C29.7623 66.0951 30.6413 62.244 33.5733 60.4677L34.5952 59.8485C37.4105 58.1429 38.9544 54.9369 38.5326 51.6724L38.3795 50.4874C37.9402 47.0875 40.4031 43.9992 43.8155 43.6709L45.0048 43.5565C48.2814 43.2413 51.0634 41.0227 52.0998 37.8984L52.476 36.7644C53.5554 33.5106 57.1143 31.7967 60.3312 32.9815L61.4524 33.3945C64.5412 34.5321 68.0104 33.7403 70.2997 31.3751L71.1307 30.5166C73.515 28.0534 77.4651 28.0534 79.8494 30.5166Z" stroke="#F88A2E" stroke-opacity="0.36" stroke-width="2.24703"/>
<mask id="mask1_102_47" style="mask-type:alpha" maskUnits="userSpaceOnUse" x="29" y="27" width="93" height="95">
<path d="M70.3232 29.7352C73.149 26.8158 77.8306 26.8158 80.6564 29.7352L81.4874 30.5937C83.4673 32.6393 86.4677 33.3241 89.1391 32.3402L90.2603 31.9272C94.0729 30.523 98.2909 32.5543 99.5702 36.4106L99.9464 37.5447C100.843 40.2467 103.249 42.1655 106.083 42.4381L107.272 42.5526C111.316 42.9416 114.235 46.6019 113.715 50.6314L113.561 51.8164C113.197 54.6397 114.532 57.4125 116.967 58.8876L117.989 59.5067C121.464 61.6121 122.505 66.1763 120.288 69.5809L119.636 70.5821C118.082 72.9676 118.082 76.0451 119.636 78.4306L120.288 79.4318C122.505 82.8363 121.464 87.4006 117.989 89.5059L116.967 90.125C114.532 91.6002 113.197 94.3729 113.561 97.1963L113.715 98.3812C114.235 102.411 111.316 106.071 107.272 106.46L106.083 106.574C103.249 106.847 100.843 108.766 99.9464 111.468L99.5702 112.602C98.2909 116.458 94.0729 118.49 90.2603 117.085L89.1391 116.672C86.4677 115.689 83.4673 116.373 81.4874 118.419L80.6564 119.277C77.8306 122.197 73.149 122.197 70.3232 119.277L69.4922 118.419C67.5122 116.373 64.5119 115.689 61.8405 116.672L60.7193 117.085C56.9066 118.49 52.6886 116.458 51.4094 112.602L51.0332 111.468C50.1368 108.766 47.7307 106.847 44.897 106.574L43.7076 106.46C39.6633 106.071 36.7444 102.411 37.265 98.3812L37.4181 97.1963C37.7829 94.3729 36.4476 91.6002 34.0127 90.125L32.9908 89.5059C29.5158 87.4006 28.4741 82.8363 30.6915 79.4318L31.3436 78.4306C32.8972 76.0451 32.8972 72.9676 31.3436 70.5821L30.6915 69.5809C28.4741 66.1763 29.5158 61.6121 32.9908 59.5067L34.0127 58.8876C36.4476 57.4125 37.7829 54.6397 37.4181 51.8164L37.265 50.6314C36.7444 46.6019 39.6633 42.9416 43.7076 42.5526L44.897 42.4381C47.7307 42.1655 50.1368 40.2467 51.0332 37.5447L51.4094 36.4106C52.6886 32.5543 56.9066 30.523 60.7193 31.9272L61.8405 32.3402C64.5119 33.3241 67.5122 32.6393 69.4922 30.5937L70.3232 29.7352Z" fill="#CFC69C"/>
<path d="M79.8491 30.5166L80.6801 31.3751C82.9694 33.7403 86.4386 34.5321 89.5274 33.3945L90.6486 32.9815C93.8655 31.7967 97.4244 33.5106 98.5038 36.7644L98.88 37.8984C99.9164 41.0227 102.698 43.2413 105.975 43.5565L107.164 43.6709C110.577 43.9992 113.04 47.0875 112.6 50.4874L112.447 51.6724C112.025 54.9369 113.569 58.1429 116.385 59.8485L117.407 60.4677C120.339 62.244 121.218 66.0951 119.347 68.9677L118.695 69.9689C116.898 72.7271 116.898 76.2855 118.695 79.0437L119.347 80.0449C121.218 82.9175 120.339 86.7686 117.407 88.545L116.385 89.1641C113.569 90.8697 112.025 94.0757 112.447 97.3402L112.6 98.5252C113.04 101.925 110.577 105.013 107.164 105.342L105.975 105.456C102.698 105.771 99.9164 107.99 98.88 111.114L98.5038 112.248C97.4244 115.502 93.8655 117.216 90.6486 116.031L89.5274 115.618C86.4386 114.481 82.9694 115.272 80.6801 117.638L79.8491 118.496C77.4648 120.959 73.5147 120.959 71.1304 118.496L70.2995 117.638C68.0101 115.272 64.541 114.481 61.4522 115.618L60.331 116.031C57.1141 117.216 53.5551 115.502 52.4757 112.248L52.0995 111.114C51.0631 107.99 48.2811 105.771 45.0046 105.456L43.8152 105.342C40.4028 105.013 37.94 101.925 38.3792 98.5252L38.5323 97.3402C38.9541 94.0757 37.4102 90.8697 34.5949 89.1641L33.573 88.545C30.641 86.7686 29.762 82.9175 31.6329 80.0449L32.285 79.0437C34.0814 76.2855 34.0814 72.7271 32.285 69.9689L31.6329 68.9677C29.762 66.0951 30.641 62.244 33.573 60.4677L34.5949 59.8485C37.4102 58.1429 38.9541 54.9369 38.5323 51.6724L38.3792 50.4874C37.94 47.0875 40.4028 43.9992 43.8152 43.6709L45.0046 43.5565C48.2811 43.2413 51.0631 41.0227 52.0995 37.8984L52.4757 36.7644C53.5551 33.5106 57.1141 31.7967 60.331 32.9815L61.4522 33.3945C64.541 34.5321 68.0101 33.7403 70.2995 31.3751L71.1304 30.5166C73.5147 28.0534 77.4648 28.0534 79.8491 30.5166Z" stroke="#F88A2E" stroke-opacity="0.36" stroke-width="2.24703"/>
</mask>
<g mask="url(#mask1_102_47)">
<circle cx="67.4678" cy="65.1132" r="44.3349" fill="url(#paint1_linear_102_47)"/>
</g>
<g opacity="0.5">
<mask id="mask2_102_47" style="mask-type:alpha" maskUnits="userSpaceOnUse" x="37" y="32" width="71" height="72">
<path d="M75.5515 34.4953L76.1856 35.1504C77.9324 36.955 80.5794 37.5592 82.9363 36.6912L83.7918 36.3761C86.2464 35.472 88.9619 36.7798 89.7855 39.2625L90.0726 40.1278C90.8634 42.5117 92.9862 44.2046 95.4862 44.4451L96.3937 44.5324C98.9975 44.7829 100.877 47.1393 100.542 49.7336L100.425 50.6377C100.103 53.1286 101.281 55.5749 103.429 56.8763L104.209 57.3487C106.446 58.7041 107.117 61.6426 105.689 63.8345L105.192 64.5984C103.821 66.703 103.821 69.4181 105.192 71.5227L105.689 72.2867C107.117 74.4786 106.446 77.417 104.209 78.7724L103.429 79.2449C101.281 80.5463 100.103 82.9925 100.425 85.4835L100.542 86.3876C100.877 88.9818 98.9975 91.3383 96.3937 91.5888L95.4862 91.6761C92.9862 91.9166 90.8634 93.6095 90.0726 95.9933L89.7855 96.8587C88.9619 99.3414 86.2464 100.649 83.7918 99.7451L82.9363 99.43C80.5794 98.562 77.9324 99.1661 76.1856 100.971L75.5515 101.626C73.7322 103.505 70.7182 103.505 68.899 101.626L68.2649 100.971C66.5181 99.1661 63.871 98.562 61.5142 99.43L60.6587 99.7451C58.2041 100.649 55.4885 99.3414 54.6649 96.8587L54.3779 95.9933C53.5871 93.6095 51.4643 91.9166 48.9642 91.6761L48.0567 91.5888C45.453 91.3383 43.5737 88.9818 43.9089 86.3876L44.0257 85.4834C44.3476 82.9925 43.1695 80.5463 41.0214 79.2449L40.2417 78.7724C38.0044 77.417 37.3337 74.4786 38.7613 72.2867L39.2589 71.5227C40.6296 69.4181 40.6296 66.703 39.2589 64.5984L38.7613 63.8345C37.3337 61.6426 38.0044 58.7041 40.2417 57.3487L41.0214 56.8763C43.1695 55.5749 44.3476 53.1286 44.0257 50.6377L43.9089 49.7336C43.5737 47.1393 45.453 44.7829 48.0567 44.5324L48.9642 44.4451C51.4643 44.2046 53.5871 42.5117 54.3779 40.1278L54.6649 39.2625C55.4885 36.7798 58.2041 35.472 60.6587 36.3761L61.5142 36.6912C63.871 37.5592 66.5181 36.955 68.2649 35.1504L68.899 34.4953C70.7182 32.6158 73.7322 32.6158 75.5515 34.4953Z" fill="#CFC69C" stroke="#FFBB42" stroke-width="1.71454"/>
</mask>
<g mask="url(#mask2_102_47)">
<g style="mix-blend-mode:screen">
<circle cx="66.1042" cy="60.8934" r="33.8287" fill="url(#paint2_linear_102_47)"/>
</g>
</g>
</g>
<g filter="url(#filter1_d_102_47)">
<path d="M72.7072 58.8824C73.8875 56.6453 77.0915 56.6453 78.2719 58.8824L81.155 64.3469C81.6102 65.2097 82.4398 65.8124 83.401 65.9787L89.489 67.0321C91.9814 67.4634 92.9715 70.5106 91.2085 72.3244L86.9024 76.7551C86.2226 77.4546 85.9057 78.4299 86.0445 79.3954L86.924 85.5109C87.284 88.0146 84.692 89.8979 82.4221 88.7818L76.8776 86.0555C76.0023 85.6251 74.9768 85.6251 74.1014 86.0555L68.557 88.7818C66.2871 89.8979 63.695 88.0146 64.0551 85.5109L64.9345 79.3954C65.0734 78.4299 64.7565 77.4546 64.0766 76.7551L59.7705 72.3244C58.0076 70.5105 58.9977 67.4634 61.4901 67.0321L67.5781 65.9787C68.5392 65.8124 69.3689 65.2097 69.8241 64.3469L72.7072 58.8824Z" fill="white"/>
</g>
<mask id="mask3_102_47" style="mask-type:alpha" maskUnits="userSpaceOnUse" x="58" y="57" width="35" height="33">
<path d="M72.7079 58.8824C73.8882 56.6452 77.0922 56.6453 78.2725 58.8824L81.1556 64.3469C81.6108 65.2097 82.4405 65.8124 83.4016 65.9787L89.4896 67.0321C91.982 67.4634 92.9721 70.5105 91.2092 72.3244L86.9031 76.7551C86.2232 77.4546 85.9063 78.4299 86.0452 79.3954L86.9247 85.5109C87.2847 88.0146 84.6926 89.8979 82.4227 88.7817L76.8783 86.0555C76.0029 85.6251 74.9774 85.6251 74.1021 86.0555L68.5576 88.7818C66.2878 89.8979 63.6957 88.0146 64.0557 85.5109L64.9352 79.3954C65.0741 78.4299 64.7572 77.4546 64.0773 76.7551L59.7712 72.3244C58.0083 70.5105 58.9983 67.4634 61.4908 67.0321L67.5788 65.9787C68.5399 65.8124 69.3696 65.2097 69.8247 64.3469L72.7079 58.8824Z" fill="white"/>
</mask>
<g mask="url(#mask3_102_47)">
<path d="M54.8177 89.5614L73.9961 83.048C83.5923 79.7889 89.5071 70.158 88.0738 60.1253L97.5114 80.3486L90.5456 94.9543L54.8177 89.5614Z" fill="#E4EDFF"/>
</g>
<circle cx="75.5016" cy="74.5063" r="28.3126" stroke="url(#paint3_linear_102_47)" stroke-width="4.04466"/>
<circle cx="75.5016" cy="74.5063" r="31.4585" stroke="white" stroke-width="2.24703"/>
</g>
<path d="M67.6262 60.5976C68.5514 58.995 70.6005 58.446 72.203 59.3712L98.8012 74.7277C100.404 75.6529 100.953 77.702 100.028 79.3045L56.948 153.921C55.7027 156.078 52.6227 156.17 51.2504 154.091L43.4784 142.32C42.8895 141.428 41.9104 140.871 40.8428 140.82L27.3246 140.172C24.8191 140.052 23.3293 137.322 24.5835 135.15L67.6262 60.5976Z" fill="#00EBC9"/>
<path d="M92.2097 60.5976C91.2845 58.995 89.2353 58.446 87.6328 59.3712L61.0346 74.7277C59.4321 75.6529 58.883 77.702 59.8083 79.3045L102.888 153.921C104.133 156.078 107.213 156.17 108.585 154.091L116.357 142.32C116.946 141.428 117.925 140.871 118.993 140.82L132.511 140.172C135.017 140.052 136.507 137.322 135.252 135.15L92.2097 60.5976Z" fill="#00EBC9"/>
<mask id="mask4_102_47" style="mask-type:alpha" maskUnits="userSpaceOnUse" x="24" y="58" width="112" height="98">
<path d="M67.6263 60.5976C68.5515 58.995 70.6006 58.446 72.2032 59.3712L98.8013 74.7277C100.404 75.6529 100.953 77.702 100.028 79.3045L56.9481 153.921C55.7028 156.078 52.6228 156.17 51.2505 154.091L43.4785 142.32C42.8896 141.428 41.9105 140.871 40.8429 140.82L27.3248 140.172C24.8193 140.052 23.3294 137.322 24.5836 135.15L67.6263 60.5976Z" fill="#F7F9FF"/>
<path d="M92.2098 60.5976C91.2846 58.995 89.2354 58.446 87.6329 59.3712L61.0347 74.7277C59.4322 75.6529 58.8831 77.702 59.8083 79.3045L102.888 153.921C104.133 156.078 107.213 156.17 108.586 154.091L116.358 142.32C116.946 141.428 117.926 140.871 118.993 140.82L132.511 140.172C135.017 140.052 136.507 137.322 135.252 135.15L92.2098 60.5976Z" fill="#F7F9FF"/>
</mask>
<g mask="url(#mask4_102_47)">
<path d="M74.2207 25.5979C77.4819 22.2287 82.8848 22.2287 86.1459 25.5979L87.1049 26.5887C89.3899 28.9494 92.8525 29.7397 95.9355 28.6042L97.2294 28.1276C101.629 26.5071 106.497 28.8513 107.974 33.3018L108.408 34.6105C109.442 37.7289 112.219 39.9433 115.489 40.2579L116.862 40.39C121.529 40.839 124.898 45.0631 124.297 49.7134L124.12 51.081C123.7 54.3393 125.241 57.5392 128.05 59.2417L129.23 59.9562C133.24 62.3858 134.442 67.6533 131.883 71.5824L131.131 72.7378C129.338 75.4908 129.338 79.0424 131.131 81.7955L131.883 82.9509C134.442 86.88 133.24 92.1474 129.23 94.5771L128.05 95.2916C125.241 96.994 123.7 100.194 124.12 103.452L124.297 104.82C124.898 109.47 121.529 113.694 116.862 114.143L115.489 114.275C112.219 114.59 109.442 116.804 108.408 119.923L107.974 121.231C106.497 125.682 101.629 128.026 97.2294 126.406L95.9355 125.929C92.8525 124.794 89.3899 125.584 87.1049 127.945L86.1459 128.935C82.8848 132.305 77.4819 132.305 74.2207 128.935L73.2617 127.945C70.9767 125.584 67.5141 124.794 64.4311 125.929L63.1372 126.406C58.7372 128.026 53.8694 125.682 52.393 121.231L51.9588 119.923C50.9244 116.804 48.1476 114.59 44.8773 114.275L43.5047 114.143C38.8373 113.694 35.4686 109.47 36.0695 104.82L36.2461 103.452C36.6671 100.194 35.1261 96.994 32.3162 95.2916L31.1368 94.5771C27.1265 92.1474 25.9242 86.88 28.4832 82.9509L29.2358 81.7955C31.0288 79.0425 31.0288 75.4908 29.2358 72.7378L28.4832 71.5824C25.9242 67.6533 27.1265 62.3858 31.1368 59.9562L32.3162 59.2417C35.1261 57.5392 36.6671 54.3393 36.2461 51.081L36.0695 49.7134C35.4686 45.0631 38.8373 40.839 43.5047 40.39L44.8772 40.2579C48.1476 39.9433 50.9244 37.7289 51.9588 34.6105L52.393 33.3018C53.8694 28.8513 58.7372 26.5071 63.1372 28.1276L64.4311 28.6042C67.5141 29.7397 70.9767 28.9494 73.2617 26.5887L74.2207 25.5979Z" fill="#05FFDB"/>
</g>
<path d="M74.2086 14.1601C77.4698 10.7909 82.8726 10.7909 86.1338 14.1601L87.0928 15.1509C89.3778 17.5116 92.8404 18.3019 95.9234 17.1664L97.2173 16.6898C101.617 15.0693 106.485 17.4135 107.962 21.864L108.396 23.1727C109.43 26.2911 112.207 28.5055 115.477 28.8201L116.85 28.9522C121.517 29.4012 124.886 33.6253 124.285 38.2756L124.108 39.6432C123.687 42.9015 125.228 46.1014 128.038 47.8038L129.218 48.5183C133.228 50.948 134.43 56.2154 131.871 60.1445L131.119 61.3C129.326 64.053 129.326 67.6046 131.119 70.3577L131.871 71.5131C134.43 75.4422 133.228 80.7096 129.218 83.1393L128.038 83.8538C125.228 85.5562 123.687 88.7561 124.108 92.0145L124.285 93.382C124.886 98.0323 121.517 102.256 116.85 102.705L115.477 102.838C112.207 103.152 109.43 105.367 108.396 108.485L107.962 109.794C106.485 114.244 101.617 116.588 97.2173 114.968L95.9234 114.491C92.8404 113.356 89.3778 114.146 87.0928 116.507L86.1338 117.498C82.8726 120.867 77.4698 120.867 74.2086 117.498L73.2496 116.507C70.9646 114.146 67.502 113.356 64.419 114.491L63.1251 114.968C58.7251 116.588 53.8572 114.244 52.3809 109.794L51.9467 108.485C50.9123 105.367 48.1355 103.152 44.8651 102.838L43.4926 102.705C38.8252 102.256 35.4565 98.0323 36.0573 93.382L36.234 92.0145C36.655 88.7561 35.114 85.5562 32.3041 83.8538L31.1247 83.1393C27.1143 80.7096 25.9121 75.4422 28.4711 71.5131L29.2236 70.3577C31.0167 67.6046 31.0167 64.053 29.2236 61.3L28.4711 60.1445C25.9121 56.2154 27.1143 50.948 31.1247 48.5184L32.3041 47.8038C35.114 46.1014 36.655 42.9015 36.234 39.6432L36.0573 38.2756C35.4565 33.6253 38.8252 29.4012 43.4926 28.9522L44.8651 28.8201C48.1355 28.5055 50.9123 26.2911 51.9467 23.1727L52.3809 21.864C53.8572 17.4135 58.7251 15.0693 63.1251 16.6898L64.419 17.1664C67.502 18.3019 70.9646 17.5116 73.2496 15.1509L74.2086 14.1601Z" fill="url(#paint4_linear_102_47)"/>
<path d="M85.2021 15.0619L86.1612 16.0527C88.8032 18.7822 92.8068 19.696 96.3715 18.3831L97.6654 17.9065C101.378 16.5392 105.485 18.5171 106.731 22.2722L107.165 23.581C108.361 27.1866 111.572 29.747 115.353 30.1108L116.726 30.2428C120.664 30.6217 123.506 34.1858 122.999 38.1095L122.822 39.477C122.336 43.2445 124.117 46.9444 127.366 48.9128L128.546 49.6273C131.93 51.6774 132.944 56.1217 130.785 59.4369L130.032 60.5924C127.959 63.7755 127.959 67.8821 130.032 71.0653L130.785 72.2207C132.944 75.5359 131.93 79.9803 128.546 82.0303L127.366 82.7448C124.117 84.7132 122.336 88.4132 122.822 92.1806L122.999 93.5481C123.506 97.4719 120.664 101.036 116.726 101.415L115.353 101.547C111.572 101.911 108.361 104.471 107.165 108.077L106.731 109.385C105.485 113.141 101.378 115.118 97.6654 113.751L96.3715 113.275C92.8068 111.962 88.8032 112.875 86.1612 115.605L85.2021 116.596C82.4505 119.439 77.8919 119.439 75.1403 116.596L74.1812 115.605C71.5392 112.875 67.5356 111.962 63.9709 113.275L62.677 113.751C58.9644 115.118 54.8572 113.141 53.6115 109.385L53.1774 108.077C51.9813 104.471 48.7706 101.911 44.9893 101.547L43.6167 101.415C39.6786 101.036 36.8363 97.4719 37.3433 93.5481L37.5199 92.1806C38.0067 88.4132 36.2249 84.7132 32.9759 82.7448L31.7966 82.0303C28.4128 79.9803 27.3984 75.5359 29.5576 72.2207L30.3101 71.0653C32.3833 67.8821 32.3833 63.7755 30.3101 60.5924L29.5576 59.4369C27.3984 56.1217 28.4128 51.6774 31.7966 49.6273L32.9759 48.9128C36.2249 46.9444 38.0067 43.2445 37.52 39.477L37.3433 38.1095C36.8363 34.1858 39.6786 30.6217 43.6167 30.2428L44.9893 30.1108C48.7706 29.747 51.9813 27.1866 53.1774 23.581L53.6115 22.2722C54.8572 18.5171 58.9644 16.5392 62.677 17.9065L63.9709 18.3831C67.5356 19.696 71.5392 18.7822 74.1812 16.0527L75.1403 15.0619C77.8919 12.2191 82.4505 12.2191 85.2021 15.0619Z" stroke="#F88A2E" stroke-opacity="0.36" stroke-width="2.59322"/>
<mask id="mask5_102_47" style="mask-type:alpha" maskUnits="userSpaceOnUse" x="27" y="11" width="107" height="110">
<path d="M74.208 14.1601C77.4691 10.7909 82.872 10.7909 86.1332 14.1601L87.0922 15.1509C89.3772 17.5116 92.8398 18.3019 95.9228 17.1664L97.2167 16.6898C101.617 15.0693 106.485 17.4135 107.961 21.864L108.395 23.1727C109.43 26.2911 112.206 28.5055 115.477 28.8201L116.849 28.9522C121.517 29.4012 124.885 33.6253 124.284 38.2756L124.108 39.6432C123.687 42.9015 125.228 46.1014 128.038 47.8038L129.217 48.5183C133.227 50.948 134.43 56.2154 131.871 60.1445L131.118 61.3C129.325 64.053 129.325 67.6046 131.118 70.3577L131.871 71.5131C134.43 75.4422 133.227 80.7096 129.217 83.1393L128.038 83.8538C125.228 85.5562 123.687 88.7561 124.108 92.0145L124.284 93.382C124.885 98.0323 121.517 102.256 116.849 102.705L115.477 102.838C112.206 103.152 109.43 105.367 108.395 108.485L107.961 109.794C106.485 114.244 101.617 116.588 97.2167 114.968L95.9228 114.491C92.8398 113.356 89.3772 114.146 87.0922 116.507L86.1332 117.498C82.872 120.867 77.4692 120.867 74.208 117.498L73.249 116.507C70.964 114.146 67.5014 113.356 64.4184 114.491L63.1245 114.968C58.7245 116.588 53.8566 114.244 52.3803 109.794L51.9461 108.485C50.9116 105.367 48.1349 103.152 44.8645 102.838L43.492 102.705C38.8245 102.256 35.4559 98.0323 36.0567 93.382L36.2334 92.0145C36.6544 88.7561 35.1134 85.5562 32.3034 83.8538L31.1241 83.1393C27.1137 80.7096 25.9115 75.4422 28.4705 71.5131L29.223 70.3577C31.0161 67.6046 31.0161 64.053 29.223 61.3L28.4705 60.1445C25.9115 56.2154 27.1137 50.948 31.1241 48.5184L32.3034 47.8038C35.1134 46.1014 36.6544 42.9015 36.2334 39.6432L36.0567 38.2756C35.4559 33.6253 38.8245 29.4012 43.492 28.9522L44.8645 28.8201C48.1349 28.5055 50.9116 26.2911 51.9461 23.1727L52.3803 21.864C53.8566 17.4135 58.7245 15.0693 63.1245 16.6898L64.4184 17.1664C67.5014 18.3019 70.964 17.5116 73.249 15.1509L74.208 14.1601Z" fill="#CFC69C"/>
<path d="M85.2015 15.0619L86.1605 16.0527C88.8026 18.7822 92.8062 19.696 96.3709 18.3831L97.6648 17.9065C101.377 16.5392 105.485 18.5171 106.73 22.2722L107.164 23.581C108.361 27.1866 111.571 29.747 115.352 30.1108L116.725 30.2428C120.663 30.6217 123.505 34.1858 122.999 38.1095L122.822 39.477C122.335 43.2445 124.117 46.9444 127.366 48.9128L128.545 49.6273C131.929 51.6774 132.943 56.1217 130.784 59.4369L130.032 60.5924C127.958 63.7755 127.958 67.8821 130.032 71.0653L130.784 72.2207C132.943 75.5359 131.929 79.9803 128.545 82.0303L127.366 82.7448C124.117 84.7132 122.335 88.4132 122.822 92.1806L122.999 93.5481C123.505 97.4719 120.663 101.036 116.725 101.415L115.352 101.547C111.571 101.911 108.361 104.471 107.164 108.077L106.73 109.385C105.485 113.141 101.377 115.118 97.6648 113.751L96.3709 113.275C92.8062 111.962 88.8026 112.875 86.1605 115.605L85.2015 116.596C82.4499 119.439 77.8913 119.439 75.1397 116.596L74.1806 115.605C71.5386 112.875 67.535 111.962 63.9703 113.275L62.6764 113.751C58.9638 115.118 54.8566 113.141 53.6109 109.385L53.1768 108.077C51.9807 104.471 48.77 101.911 44.9887 101.547L43.6161 101.415C39.678 101.036 36.8357 97.4719 37.3427 93.5481L37.5193 92.1806C38.0061 88.4132 36.2243 84.7132 32.9753 82.7448L31.796 82.0303C28.4122 79.9803 27.3978 75.5359 29.557 72.2207L30.3095 71.0653C32.3827 67.8821 32.3827 63.7755 30.3095 60.5924L29.557 59.4369C27.3978 56.1217 28.4122 51.6774 31.796 49.6273L32.9753 48.9128C36.2243 46.9444 38.0061 43.2445 37.5193 39.477L37.3427 38.1095C36.8357 34.1858 39.678 30.6217 43.6161 30.2428L44.9887 30.1108C48.77 29.747 51.9807 27.1866 53.1768 23.581L53.6109 22.2722C54.8566 18.5171 58.9638 16.5392 62.6764 17.9065L63.9703 18.3831C67.535 19.696 71.5386 18.7822 74.1806 16.0527L75.1397 15.0619C77.8913 12.2191 82.4499 12.2191 85.2015 15.0619Z" stroke="#F88A2E" stroke-opacity="0.36" stroke-width="2.59322"/>
</mask>
<g mask="url(#mask5_102_47)">
<circle cx="70.9122" cy="54.9885" r="51.1653" fill="url(#paint5_linear_102_47)"/>
</g>
<g opacity="0.5">
<mask id="mask6_102_47" style="mask-type:alpha" maskUnits="userSpaceOnUse" x="35" y="17" width="82" height="83">
<path d="M80.2415 19.6536L80.9732 20.4096C82.9892 22.4923 86.044 23.1895 88.764 22.1877L89.7513 21.8241C92.5841 20.7808 95.718 22.29 96.6685 25.1552L96.9997 26.1539C97.9124 28.905 100.362 30.8587 103.247 31.1362L104.295 31.237C107.3 31.5261 109.468 34.2456 109.082 37.2395L108.947 38.283C108.575 41.1576 109.935 43.9807 112.414 45.4827L113.314 46.0279C115.896 47.5921 116.67 50.9833 115.022 53.5129L114.448 54.3945C112.866 56.8233 112.866 59.9568 114.448 62.3856L115.022 63.2672C116.67 65.7968 115.896 69.188 113.314 70.7522L112.414 71.2974C109.935 72.7994 108.575 75.6225 108.947 78.4972L109.082 79.5406C109.468 82.5345 107.3 85.254 104.295 85.5431L103.247 85.6439C100.362 85.9214 97.9124 87.8751 96.9997 90.6262L96.6685 91.6249C95.718 94.4901 92.5841 95.9993 89.7513 94.956L88.764 94.5924C86.044 93.5906 82.9892 94.2878 80.9732 96.3706L80.2415 97.1265C78.1419 99.2956 74.6636 99.2956 72.564 97.1265L71.8323 96.3706C69.8163 94.2878 66.7615 93.5906 64.0415 94.5924L63.0542 94.956C60.2214 95.9993 57.0875 94.4901 56.137 91.6249L55.8058 90.6262C54.8931 87.8751 52.4433 85.9214 49.5581 85.6439L48.5108 85.5431C45.5059 85.254 43.3371 82.5345 43.7239 79.5406L43.8587 78.4972C44.2302 75.6225 42.8706 72.7994 40.3915 71.2974L39.4917 70.7522C36.9098 69.188 36.1358 65.7968 37.7833 63.2672L38.3575 62.3856C39.9394 59.9568 39.9394 56.8233 38.3575 54.3945L37.7833 53.5129C36.1358 50.9833 36.9098 47.5921 39.4917 46.0279L40.3915 45.4827C42.8706 43.9808 44.2302 41.1576 43.8587 38.283L43.7239 37.2395C43.3371 34.2456 45.5058 31.5261 48.5107 31.237L49.558 31.1362C52.4433 30.8587 54.8931 28.905 55.8058 26.1539L56.137 25.1552C57.0875 22.29 60.2214 20.7808 63.0542 21.8241L64.0415 22.1877C66.7614 23.1895 69.8163 22.4923 71.8323 20.4096L72.564 19.6536C74.6636 17.4845 78.1419 17.4845 80.2415 19.6536Z" fill="#CFC69C" stroke="#FFBB42" stroke-width="1.97869"/>
</mask>
<g mask="url(#mask6_102_47)">
<g style="mix-blend-mode:screen">
<circle cx="69.3373" cy="50.1186" r="39.0404" fill="url(#paint6_linear_102_47)"/>
</g>
</g>
</g>
<circle cx="80.1833" cy="65.8289" r="32.6746" stroke="url(#paint7_linear_102_47)" stroke-width="4.6678"/>
<circle cx="80.1833" cy="65.8289" r="36.3051" stroke="white" stroke-width="2.59322"/>
<g filter="url(#filter2_d_102_47)">
<path d="M81.9078 50.1267L73.1772 58.8573C72.5941 59.4404 72.2631 60.2441 72.2631 61.0793V76.8228C72.2631 78.5564 73.6815 79.9747 75.415 79.9747H89.5983C90.859 79.9747 91.9937 79.2182 92.498 78.0678L97.6355 66.075C98.9593 62.9547 96.6742 59.4877 93.286 59.4877H84.382L85.8791 52.2699C86.0367 51.482 85.8003 50.6782 85.233 50.1109C84.3032 49.1969 82.8218 49.1969 81.9078 50.1267V50.1267ZM65.9594 79.9747C67.693 79.9747 69.1113 78.5564 69.1113 76.8228V64.2154C69.1113 62.4819 67.693 61.0636 65.9594 61.0636C64.2259 61.0636 62.8076 62.4819 62.8076 64.2154V76.8228C62.8076 78.5564 64.2259 79.9747 65.9594 79.9747Z" fill="white"/>
</g>
<defs>
<filter id="filter0_f_102_47" x="0.119097" y="0.733232" width="150.305" height="178.369" filterUnits="userSpaceOnUse" color-interpolation-filters="sRGB">
<feFlood flood-opacity="0" result="BackgroundImageFix"/>
<feBlend mode="normal" in="SourceGraphic" in2="BackgroundImageFix" result="shape"/>
<feGaussianBlur stdDeviation="13.4062" result="effect1_foregroundBlur_102_47"/>
</filter>
<filter id="filter1_d_102_47" x="56.6305" y="56.7552" width="37.7181" height="36.4001" filterUnits="userSpaceOnUse" color-interpolation-filters="sRGB">
<feFlood flood-opacity="0" result="BackgroundImageFix"/>
<feColorMatrix in="SourceAlpha" type="matrix" values="0 0 0 0 0 0 0 0 0 0 0 0 0 0 0 0 0 0 127 0" result="hardAlpha"/>
<feOffset dy="1.79763"/>
<feGaussianBlur stdDeviation="1.12352"/>
<feComposite in2="hardAlpha" operator="out"/>
<feColorMatrix type="matrix" values="0 0 0 0 0.883333 0 0 0 0 0.658672 0 0 0 0 0.0809722 0 0 0 0.41 0"/>
<feBlend mode="normal" in2="BackgroundImageFix" result="effect1_dropShadow_102_47"/>
<feBlend mode="normal" in="SourceGraphic" in2="effect1_dropShadow_102_47" result="shape"/>
</filter>
<filter id="filter2_d_102_47" x="59.3055" y="47.3261" width="42.2134" height="37.5515" filterUnits="userSpaceOnUse" color-interpolation-filters="sRGB">
<feFlood flood-opacity="0" result="BackgroundImageFix"/>
<feColorMatrix in="SourceAlpha" type="matrix" values="0 0 0 0 0 0 0 0 0 0 0 0 0 0 0 0 0 0 127 0" result="hardAlpha"/>
<feOffset dy="1.40082"/>
<feGaussianBlur stdDeviation="1.75103"/>
<feComposite in2="hardAlpha" operator="out"/>
<feColorMatrix type="matrix" values="0 0 0 0 0 0 0 0 0 0 0 0 0 0 0 0 0 0 0.1 0"/>
<feBlend mode="normal" in2="BackgroundImageFix" result="effect1_dropShadow_102_47"/>
<feBlend mode="normal" in="SourceGraphic" in2="effect1_dropShadow_102_47" result="shape"/>
</filter>
<linearGradient id="paint0_linear_102_47" x1="35.4928" y1="30.6892" x2="120.431" y2="115.627" gradientUnits="userSpaceOnUse">
<stop stop-color="#FDB83D"/>
<stop offset="1" stop-color="#F9D534"/>
</linearGradient>
<linearGradient id="paint1_linear_102_47" x1="101.398" y1="97.2333" x2="43.4907" y2="28.9214" gradientUnits="userSpaceOnUse">
<stop stop-color="#FFBB42"/>
<stop offset="0.619792" stop-color="#F9B434" stop-opacity="0"/>
</linearGradient>
<linearGradient id="paint2_linear_102_47" x1="91.9935" y1="85.4019" x2="47.8091" y2="33.2781" gradientUnits="userSpaceOnUse">
<stop stop-color="#F88A2E" stop-opacity="0.33"/>
<stop offset="1" stop-color="#F9B434" stop-opacity="0"/>
</linearGradient>
<linearGradient id="paint3_linear_102_47" x1="45.1666" y1="53.8703" x2="105.837" y2="89.3643" gradientUnits="userSpaceOnUse">
<stop stop-color="#FEB441"/>
<stop offset="0.386364" stop-color="#F88A2E"/>
</linearGradient>
<linearGradient id="paint4_linear_102_47" x1="34.0119" y1="15.261" x2="132.036" y2="113.285" gradientUnits="userSpaceOnUse">
<stop stop-color="#FDB83D"/>
<stop offset="1" stop-color="#F9D534"/>
</linearGradient>
<linearGradient id="paint5_linear_102_47" x1="110.069" y1="92.0573" x2="43.2412" y2="13.2209" gradientUnits="userSpaceOnUse">
<stop stop-color="#FFBB42"/>
<stop offset="0.619792" stop-color="#F9B434" stop-opacity="0"/>
</linearGradient>
<linearGradient id="paint6_linear_102_47" x1="99.2152" y1="78.403" x2="48.2236" y2="18.2488" gradientUnits="userSpaceOnUse">
<stop stop-color="#F88A2E" stop-opacity="0.33"/>
<stop offset="1" stop-color="#F9B434" stop-opacity="0"/>
</linearGradient>
<linearGradient id="paint7_linear_102_47" x1="45.1748" y1="42.0136" x2="115.192" y2="82.9759" gradientUnits="userSpaceOnUse">
<stop stop-color="#FEB441"/>
<stop offset="0.386364" stop-color="#F88A2E"/>
</linearGradient>
</defs>
</svg>
