<svg width="151" height="180" viewBox="0 0 151 180" fill="none" xmlns="http://www.w3.org/2000/svg">
<g filter="url(#filter0_f_102_2)">
<path d="M64.6591 69.9734C65.4608 68.5848 67.2364 68.109 68.6249 68.9107L91.6724 82.2172C93.061 83.0189 93.5367 84.7945 92.735 86.183L55.4064 150.838C54.3273 152.707 51.6585 152.787 50.4694 150.986L43.735 140.786C43.2247 140.014 42.3763 139.53 41.4512 139.486L29.7377 138.925C27.5667 138.82 26.2757 136.455 27.3624 134.573L64.6591 69.9734Z" fill="#E4EDFF"/>
<path d="M85.9604 69.9734C85.1587 68.5848 83.3831 68.109 81.9945 68.9107L58.9471 82.2172C57.5585 83.0189 57.0827 84.7945 57.8844 86.183L95.213 150.838C96.2921 152.707 98.9609 152.787 100.15 150.986L106.884 140.786C107.395 140.014 108.243 139.53 109.168 139.486L120.882 138.925C123.053 138.82 124.344 136.455 123.257 134.573L85.9604 69.9734Z" fill="#E4EDFF"/>
<mask id="mask0_102_2" style="mask-type:alpha" maskUnits="userSpaceOnUse" x="26" y="68" width="98" height="85">
<path d="M64.6592 69.9734C65.4609 68.5848 67.2365 68.1091 68.6251 68.9108L91.6725 82.2172C93.0611 83.0189 93.5368 84.7945 92.7351 86.1831L55.4065 150.838C54.3274 152.707 51.6587 152.787 50.4695 150.986L43.7351 140.786C43.2248 140.014 42.3764 139.53 41.4514 139.486L29.7378 138.925C27.5668 138.821 26.2758 136.455 27.3626 134.573L64.6592 69.9734Z" fill="#E4EDFF"/>
<path d="M85.9605 69.9734C85.1588 68.5848 83.3832 68.1091 81.9946 68.9108L58.9472 82.2172C57.5586 83.0189 57.0829 84.7945 57.8846 86.1831L95.2132 150.838C96.2923 152.707 98.9611 152.787 100.15 150.986L106.885 140.786C107.395 140.014 108.243 139.53 109.168 139.486L120.882 138.925C123.053 138.821 124.344 136.455 123.257 134.573L85.9605 69.9734Z" fill="#E4EDFF"/>
</mask>
<g mask="url(#mask0_102_2)">
<path d="M70.3723 39.6461C73.1981 36.7267 77.8797 36.7267 80.7055 39.6461L81.5365 40.5046C83.5165 42.5501 86.5168 43.235 89.1883 42.2511L90.3094 41.8381C94.1221 40.4339 98.3401 42.4652 99.6193 46.3215L99.9955 47.4556C100.892 50.1576 103.298 52.0764 106.132 52.349L107.321 52.4635C111.365 52.8525 114.284 56.5128 113.764 60.5423L113.611 61.7273C113.246 64.5506 114.581 67.3234 117.016 68.7985L118.038 69.4176C121.513 71.5229 122.555 76.0872 120.337 79.4918L119.685 80.493C118.131 82.8784 118.131 85.956 119.685 88.3414L120.337 89.3426C122.555 92.7472 121.513 97.3115 118.038 99.4168L117.016 100.036C114.581 101.511 113.246 104.284 113.611 107.107L113.764 108.292C114.284 112.322 111.365 115.982 107.321 116.371L106.132 116.485C103.298 116.758 100.892 118.677 99.9955 121.379L99.6193 122.513C98.3401 126.369 94.1221 128.401 90.3094 126.996L89.1883 126.583C86.5168 125.599 83.5165 126.284 81.5365 128.33L80.7055 129.188C77.8797 132.108 73.1981 132.108 70.3723 129.188L69.5413 128.33C67.5614 126.284 64.561 125.599 61.8896 126.583L60.7684 126.996C56.9558 128.401 52.7378 126.369 51.4585 122.513L51.0823 121.379C50.186 118.677 47.7799 116.758 44.9461 116.485L43.7568 116.371C39.7125 115.982 36.7935 112.322 37.3141 108.292L37.4672 107.107C37.832 104.284 36.4967 101.511 34.0619 100.036L33.04 99.4168C29.565 97.3115 28.5232 92.7472 30.7406 89.3426L31.3927 88.3415C32.9464 85.956 32.9464 82.8784 31.3927 80.493L30.7406 79.4918C28.5232 76.0872 29.565 71.5229 33.04 69.4176L34.0619 68.7985C36.4967 67.3234 37.832 64.5506 37.4672 61.7273L37.3141 60.5423C36.7935 56.5128 39.7125 52.8525 43.7568 52.4635L44.9461 52.349C47.7799 52.0764 50.186 50.1576 51.0823 47.4556L51.4585 46.3215C52.7378 42.4652 56.9558 40.4339 60.7684 41.8381L61.8896 42.2511C64.561 43.235 67.5614 42.5501 69.5413 40.5046L70.3723 39.6461Z" fill="#CBDCFF"/>
</g>
<path d="M70.3616 29.7352C73.1874 26.8158 77.8691 26.8158 80.6949 29.7352L81.5259 30.5937C83.5058 32.6393 86.5062 33.3241 89.1776 32.3402L90.2988 31.9272C94.1114 30.523 98.3294 32.5543 99.6087 36.4106L99.9849 37.5447C100.881 40.2467 103.287 42.1655 106.121 42.4381L107.31 42.5526C111.355 42.9416 114.274 46.6019 113.753 50.6314L113.6 51.8164C113.235 54.6397 114.57 57.4125 117.005 58.8876L118.027 59.5067C121.502 61.6121 122.544 66.1763 120.327 69.5809L119.674 70.5821C118.121 72.9676 118.121 76.0451 119.674 78.4306L120.327 79.4318C122.544 82.8363 121.502 87.4006 118.027 89.5059L117.005 90.125C114.57 91.6002 113.235 94.3729 113.6 97.1963L113.753 98.3812C114.274 102.411 111.355 106.071 107.31 106.46L106.121 106.574C103.287 106.847 100.881 108.766 99.9849 111.468L99.6087 112.602C98.3294 116.458 94.1114 118.49 90.2988 117.085L89.1776 116.672C86.5062 115.689 83.5058 116.373 81.5259 118.419L80.6949 119.277C77.8691 122.197 73.1874 122.197 70.3616 119.277L69.5307 118.419C67.5507 116.373 64.5503 115.689 61.8789 116.672L60.7578 117.085C56.9451 118.49 52.7271 116.458 51.4478 112.602L51.0716 111.468C50.1753 108.766 47.7692 106.847 44.9354 106.574L43.7461 106.46C39.7018 106.071 36.7828 102.411 37.3035 98.3812L37.4566 97.1963C37.8213 94.3729 36.4861 91.6002 34.0512 90.125L33.0293 89.5059C29.5543 87.4006 28.5126 82.8363 30.73 79.4318L31.382 78.4306C32.9357 76.0451 32.9357 72.9676 31.382 70.5821L30.73 69.5809C28.5126 66.1763 29.5543 61.6121 33.0293 59.5067L34.0512 58.8876C36.4861 57.4125 37.8213 54.6397 37.4566 51.8164L37.3035 50.6314C36.7828 46.6019 39.7018 42.9416 43.7461 42.5526L44.9354 42.4381C47.7692 42.1655 50.1753 40.2467 51.0716 37.5447L51.4478 36.4106C52.7271 32.5543 56.9451 30.523 60.7577 31.9272L61.8789 32.3402C64.5503 33.3241 67.5507 32.6393 69.5307 30.5937L70.3616 29.7352Z" fill="url(#paint0_linear_102_2)"/>
<path d="M79.8876 30.5166L80.7186 31.3751C83.0079 33.7403 86.4771 34.5321 89.5659 33.3945L90.6871 32.9815C93.904 31.7967 97.4629 33.5106 98.5423 36.7644L98.9185 37.8984C99.9549 41.0227 102.737 43.2413 106.013 43.5565L107.203 43.6709C110.615 43.9992 113.078 47.0875 112.639 50.4874L112.486 51.6724C112.064 54.9369 113.608 58.1429 116.423 59.8485L117.445 60.4677C120.377 62.244 121.256 66.0951 119.385 68.9677L118.733 69.9689C116.937 72.7271 116.937 76.2855 118.733 79.0437L119.385 80.0449C121.256 82.9175 120.377 86.7686 117.445 88.545L116.423 89.1641C113.608 90.8697 112.064 94.0757 112.486 97.3402L112.639 98.5252C113.078 101.925 110.615 105.013 107.203 105.342L106.013 105.456C102.737 105.771 99.9549 107.99 98.9185 111.114L98.5423 112.248C97.4629 115.502 93.904 117.216 90.6871 116.031L89.5659 115.618C86.4771 114.481 83.0079 115.272 80.7186 117.638L79.8876 118.496C77.5033 120.959 73.5532 120.959 71.1689 118.496L70.3379 117.638C68.0486 115.272 64.5795 114.481 61.4906 115.618L60.3694 116.031C57.1525 117.216 53.5936 115.502 52.5142 112.248L52.138 111.114C51.1016 107.99 48.3196 105.771 45.043 105.456L43.8537 105.342C40.4413 105.013 37.9784 101.925 38.4177 98.5252L38.5708 97.3402C38.9926 94.0757 37.4487 90.8697 34.6334 89.1641L33.6115 88.545C30.6795 86.7686 29.8005 82.9175 31.6714 80.0449L32.3235 79.0437C34.1199 76.2855 34.1199 72.7271 32.3235 69.9689L31.6714 68.9677C29.8005 66.0951 30.6795 62.244 33.6115 60.4677L34.6334 59.8485C37.4487 58.1429 38.9926 54.9369 38.5708 51.6724L38.4177 50.4874C37.9784 47.0875 40.4413 43.9992 43.8537 43.6709L45.043 43.5565C48.3196 43.2413 51.1016 41.0227 52.138 37.8984L52.5142 36.7644C53.5936 33.5106 57.1525 31.7967 60.3694 32.9815L61.4906 33.3945C64.5795 34.5321 68.0486 33.7403 70.3379 31.3751L71.1689 30.5166C73.5532 28.0534 77.5033 28.0534 79.8876 30.5166Z" stroke="#F88A2E" stroke-opacity="0.36" stroke-width="2.24703"/>
<mask id="mask1_102_2" style="mask-type:alpha" maskUnits="userSpaceOnUse" x="29" y="27" width="93" height="95">
<path d="M70.3614 29.7352C73.1872 26.8158 77.8688 26.8158 80.6946 29.7352L81.5256 30.5937C83.5055 32.6393 86.5059 33.3241 89.1773 32.3402L90.2985 31.9272C94.1111 30.523 98.3291 32.5543 99.6084 36.4106L99.9846 37.5447C100.881 40.2467 103.287 42.1655 106.121 42.4381L107.31 42.5526C111.354 42.9416 114.273 46.6019 113.753 50.6314L113.6 51.8164C113.235 54.6397 114.57 57.4125 117.005 58.8876L118.027 59.5067C121.502 61.6121 122.544 66.1763 120.326 69.5809L119.674 70.5821C118.121 72.9676 118.121 76.0451 119.674 78.4306L120.326 79.4318C122.544 82.8363 121.502 87.4006 118.027 89.5059L117.005 90.125C114.57 91.6002 113.235 94.3729 113.6 97.1963L113.753 98.3812C114.273 102.411 111.354 106.071 107.31 106.46L106.121 106.574C103.287 106.847 100.881 108.766 99.9846 111.468L99.6084 112.602C98.3291 116.458 94.1111 118.49 90.2985 117.085L89.1773 116.672C86.5059 115.689 83.5055 116.373 81.5256 118.419L80.6946 119.277C77.8688 122.197 73.1872 122.197 70.3614 119.277L69.5304 118.419C67.5504 116.373 64.5501 115.689 61.8787 116.672L60.7575 117.085C56.9448 118.49 52.7268 116.458 51.4476 112.602L51.0714 111.468C50.175 108.766 47.7689 106.847 44.9352 106.574L43.7458 106.46C39.7015 106.071 36.7826 102.411 37.3032 98.3812L37.4563 97.1963C37.8211 94.3729 36.4858 91.6002 34.051 90.125L33.029 89.5059C29.554 87.4006 28.5123 82.8363 30.7297 79.4318L31.3818 78.4306C32.9354 76.0451 32.9354 72.9676 31.3818 70.5821L30.7297 69.5809C28.5123 66.1763 29.554 61.6121 33.029 59.5067L34.051 58.8876C36.4858 57.4125 37.8211 54.6397 37.4563 51.8164L37.3032 50.6314C36.7826 46.6019 39.7015 42.9416 43.7458 42.5526L44.9352 42.4381C47.7689 42.1655 50.175 40.2467 51.0714 37.5447L51.4476 36.4106C52.7268 32.5543 56.9448 30.523 60.7575 31.9272L61.8787 32.3402C64.5501 33.3241 67.5504 32.6393 69.5304 30.5937L70.3614 29.7352Z" fill="#CFC69C"/>
<path d="M79.8873 30.5166L80.7183 31.3751C83.0076 33.7403 86.4768 34.5321 89.5656 33.3945L90.6868 32.9815C93.9037 31.7967 97.4626 33.5106 98.542 36.7644L98.9182 37.8984C99.9546 41.0227 102.737 43.2413 106.013 43.5565L107.203 43.6709C110.615 43.9992 113.078 47.0875 112.639 50.4874L112.485 51.6724C112.064 54.9369 113.608 58.1429 116.423 59.8485L117.445 60.4677C120.377 62.244 121.256 66.0951 119.385 68.9677L118.733 69.9689C116.936 72.7271 116.936 76.2855 118.733 79.0437L119.385 80.0449C121.256 82.9175 120.377 86.7686 117.445 88.545L116.423 89.1641C113.608 90.8697 112.064 94.0757 112.485 97.3402L112.639 98.5252C113.078 101.925 110.615 105.013 107.203 105.342L106.013 105.456C102.737 105.771 99.9546 107.99 98.9182 111.114L98.542 112.248C97.4626 115.502 93.9037 117.216 90.6868 116.031L89.5656 115.618C86.4768 114.481 83.0076 115.272 80.7183 117.638L79.8873 118.496C77.503 120.959 73.5529 120.959 71.1687 118.496L70.3377 117.638C68.0483 115.272 64.5792 114.481 61.4904 115.618L60.3692 116.031C57.1523 117.216 53.5933 115.502 52.5139 112.248L52.1377 111.114C51.1013 107.99 48.3193 105.771 45.0428 105.456L43.8534 105.342C40.441 105.013 37.9782 101.925 38.4174 98.5252L38.5705 97.3402C38.9923 94.0757 37.4484 90.8697 34.6331 89.1641L33.6112 88.545C30.6792 86.7686 29.8002 82.9175 31.6711 80.0449L32.3232 79.0437C34.1196 76.2855 34.1196 72.7271 32.3232 69.9689L31.6711 68.9677C29.8002 66.0951 30.6792 62.244 33.6112 60.4677L34.6331 59.8485C37.4484 58.1429 38.9923 54.9369 38.5705 51.6724L38.4174 50.4874C37.9782 47.0875 40.441 43.9992 43.8534 43.6709L45.0428 43.5565C48.3193 43.2413 51.1013 41.0227 52.1377 37.8984L52.5139 36.7644C53.5933 33.5106 57.1523 31.7967 60.3692 32.9815L61.4904 33.3945C64.5792 34.5321 68.0483 33.7403 70.3377 31.3751L71.1687 30.5166C73.5529 28.0534 77.503 28.0534 79.8873 30.5166Z" stroke="#F88A2E" stroke-opacity="0.36" stroke-width="2.24703"/>
</mask>
<g mask="url(#mask1_102_2)">
<circle cx="67.506" cy="65.1132" r="44.3349" fill="url(#paint1_linear_102_2)"/>
</g>
<g opacity="0.5">
<mask id="mask2_102_2" style="mask-type:alpha" maskUnits="userSpaceOnUse" x="37" y="32" width="71" height="72">
<path d="M75.5897 34.4953L76.2238 35.1504C77.9706 36.955 80.6176 37.5592 82.9745 36.6912L83.83 36.3761C86.2846 35.472 89.0001 36.7798 89.8237 39.2625L90.1108 40.1278C90.9016 42.5117 93.0244 44.2046 95.5244 44.4451L96.4319 44.5324C99.0357 44.7829 100.915 47.1393 100.58 49.7336L100.463 50.6377C100.141 53.1286 101.319 55.5749 103.467 56.8763L104.247 57.3487C106.484 58.7041 107.155 61.6426 105.727 63.8345L105.23 64.5984C103.859 66.703 103.859 69.4181 105.23 71.5227L105.727 72.2867C107.155 74.4786 106.484 77.417 104.247 78.7724L103.467 79.2449C101.319 80.5463 100.141 82.9925 100.463 85.4835L100.58 86.3876C100.915 88.9818 99.0357 91.3383 96.4319 91.5888L95.5244 91.6761C93.0244 91.9166 90.9016 93.6095 90.1108 95.9933L89.8237 96.8587C89.0001 99.3414 86.2846 100.649 83.83 99.7451L82.9745 99.43C80.6176 98.562 77.9706 99.1661 76.2238 100.971L75.5897 101.626C73.7705 103.505 70.7564 103.505 68.9372 101.626L68.3031 100.971C66.5563 99.1661 63.9092 98.562 61.5524 99.43L60.6969 99.7451C58.2423 100.649 55.5267 99.3414 54.7031 96.8587L54.4161 95.9933C53.6253 93.6095 51.5025 91.9166 49.0024 91.6761L48.0949 91.5888C45.4912 91.3383 43.612 88.9818 43.9471 86.3876L44.064 85.4834C44.3858 82.9925 43.2077 80.5463 41.0596 79.2449L40.2799 78.7724C38.0426 77.417 37.372 74.4786 38.7995 72.2867L39.2971 71.5227C40.6678 69.4181 40.6678 66.703 39.2971 64.5984L38.7995 63.8345C37.372 61.6426 38.0426 58.7041 40.2799 57.3487L41.0596 56.8763C43.2077 55.5749 44.3858 53.1286 44.064 50.6377L43.9471 49.7336C43.612 47.1393 45.4912 44.7829 48.0949 44.5324L49.0024 44.4451C51.5025 44.2046 53.6253 42.5117 54.4161 40.1278L54.7031 39.2625C55.5267 36.7798 58.2423 35.472 60.6969 36.3761L61.5524 36.6912C63.9092 37.5592 66.5563 36.955 68.3031 35.1504L68.9372 34.4953C70.7564 32.6158 73.7705 32.6158 75.5897 34.4953Z" fill="#CFC69C" stroke="#FFBB42" stroke-width="1.71454"/>
</mask>
<g mask="url(#mask2_102_2)">
<g style="mix-blend-mode:screen">
<circle cx="66.1424" cy="60.8934" r="33.8287" fill="url(#paint2_linear_102_2)"/>
</g>
</g>
</g>
<g filter="url(#filter1_d_102_2)">
<path d="M72.7455 58.8824C73.9258 56.6453 77.1298 56.6453 78.3101 58.8824L81.1932 64.3469C81.6484 65.2097 82.4781 65.8124 83.4392 65.9787L89.5272 67.0321C92.0196 67.4634 93.0097 70.5106 91.2468 72.3244L86.9407 76.7551C86.2608 77.4546 85.9439 78.4299 86.0828 79.3954L86.9623 85.5109C87.3223 88.0146 84.7302 89.8979 82.4603 88.7818L76.9159 86.0555C76.0405 85.6251 75.015 85.6251 74.1397 86.0555L68.5952 88.7818C66.3254 89.8979 63.7333 88.0146 64.0933 85.5109L64.9728 79.3954C65.1117 78.4299 64.7948 77.4546 64.1149 76.7551L59.8088 72.3244C58.0459 70.5105 59.0359 67.4634 61.5284 67.0321L67.6163 65.9787C68.5775 65.8124 69.4072 65.2097 69.8623 64.3469L72.7455 58.8824Z" fill="white"/>
</g>
<mask id="mask3_102_2" style="mask-type:alpha" maskUnits="userSpaceOnUse" x="58" y="57" width="35" height="33">
<path d="M72.7461 58.8824C73.9264 56.6452 77.1304 56.6453 78.3107 58.8824L81.1938 64.3469C81.649 65.2097 82.4787 65.8124 83.4398 65.9787L89.5278 67.0321C92.0202 67.4634 93.0103 70.5105 91.2474 72.3244L86.9413 76.7551C86.2614 77.4546 85.9445 78.4299 86.0834 79.3954L86.9629 85.5109C87.3229 88.0146 84.7308 89.8979 82.461 88.7817L76.9165 86.0555C76.0411 85.6251 75.0157 85.6251 74.1403 86.0555L68.5958 88.7818C66.326 89.8979 63.7339 88.0146 64.0939 85.5109L64.9734 79.3954C65.1123 78.4299 64.7954 77.4546 64.1155 76.7551L59.8094 72.3244C58.0465 70.5105 59.0366 67.4634 61.529 67.0321L67.617 65.9787C68.5781 65.8124 69.4078 65.2097 69.863 64.3469L72.7461 58.8824Z" fill="white"/>
</mask>
<g mask="url(#mask3_102_2)">
<path d="M54.8559 89.5614L74.0343 83.048C83.6305 79.7889 89.5453 70.158 88.112 60.1253L97.5496 80.3486L90.5838 94.9543L54.8559 89.5614Z" fill="#E4EDFF"/>
</g>
<circle cx="75.5398" cy="74.5063" r="28.3126" stroke="url(#paint3_linear_102_2)" stroke-width="4.04466"/>
<circle cx="75.5398" cy="74.5063" r="31.4585" stroke="white" stroke-width="2.24703"/>
</g>
<path d="M67.6644 60.5976C68.5896 58.995 70.6388 58.446 72.2413 59.3712L98.8395 74.7277C100.442 75.6529 100.991 77.702 100.066 79.3045L56.9862 153.921C55.7409 156.078 52.6609 156.17 51.2886 154.091L43.5167 142.32C42.9278 141.428 41.9486 140.871 40.8811 140.82L27.3629 140.172C24.8574 140.052 23.3675 137.322 24.6217 135.15L67.6644 60.5976Z" fill="#00EBC9"/>
<path d="M92.2479 60.5976C91.3227 58.995 89.2735 58.446 87.671 59.3712L61.0728 74.7277C59.4703 75.6529 58.9212 77.702 59.8465 79.3045L102.926 153.921C104.171 156.078 107.251 156.17 108.624 154.091L116.396 142.32C116.985 141.428 117.964 140.871 119.031 140.82L132.549 140.172C135.055 140.052 136.545 137.322 135.291 135.15L92.2479 60.5976Z" fill="#00EBC9"/>
<mask id="mask4_102_2" style="mask-type:alpha" maskUnits="userSpaceOnUse" x="24" y="58" width="112" height="98">
<path d="M67.6645 60.5976C68.5897 58.995 70.6389 58.446 72.2414 59.3712L98.8396 74.7277C100.442 75.6529 100.991 77.702 100.066 79.3045L56.9863 153.921C55.741 156.078 52.661 156.17 51.2887 154.091L43.5167 142.32C42.9278 141.428 41.9487 140.871 40.8812 140.82L27.363 140.172C24.8575 140.052 23.3676 137.322 24.6218 135.15L67.6645 60.5976Z" fill="#F7F9FF"/>
<path d="M92.248 60.5976C91.3228 58.995 89.2736 58.446 87.6711 59.3712L61.0729 74.7277C59.4704 75.6529 58.9213 77.702 59.8466 79.3045L102.926 153.921C104.171 156.078 107.251 156.17 108.624 154.091L116.396 142.32C116.985 141.428 117.964 140.871 119.031 140.82L132.55 140.172C135.055 140.052 136.545 137.322 135.291 135.15L92.248 60.5976Z" fill="#F7F9FF"/>
</mask>
<g mask="url(#mask4_102_2)">
<path d="M74.259 25.5979C77.5201 22.2287 82.923 22.2287 86.1841 25.5979L87.1432 26.5887C89.4282 28.9494 92.8908 29.7397 95.9737 28.6042L97.2677 28.1276C101.668 26.5071 106.536 28.8513 108.012 33.3018L108.446 34.6105C109.48 37.7289 112.257 39.9433 115.528 40.2579L116.9 40.39C121.568 40.839 124.936 45.0631 124.335 49.7134L124.159 51.081C123.738 54.3393 125.279 57.5392 128.089 59.2417L129.268 59.9562C133.278 62.3858 134.481 67.6533 131.922 71.5824L131.169 72.7378C129.376 75.4908 129.376 79.0424 131.169 81.7955L131.922 82.9509C134.481 86.88 133.278 92.1474 129.268 94.5771L128.089 95.2916C125.279 96.994 123.738 100.194 124.159 103.452L124.335 104.82C124.936 109.47 121.568 113.694 116.9 114.143L115.528 114.275C112.257 114.59 109.48 116.804 108.446 119.923L108.012 121.231C106.536 125.682 101.668 128.026 97.2677 126.406L95.9737 125.929C92.8908 124.794 89.4282 125.584 87.1432 127.945L86.1841 128.935C82.923 132.305 77.5201 132.305 74.259 128.935L73.2999 127.945C71.0149 125.584 67.5523 124.794 64.4694 125.929L63.1754 126.406C58.7754 128.026 53.9076 125.682 52.4312 121.231L51.9971 119.923C50.9626 116.804 48.1858 114.59 44.9155 114.275L43.5429 114.143C38.8755 113.694 35.5069 109.47 36.1077 104.82L36.2844 103.452C36.7054 100.194 35.1644 96.994 32.3544 95.2916L31.1751 94.5771C27.1647 92.1474 25.9624 86.88 28.5215 82.9509L29.274 81.7955C31.067 79.0425 31.067 75.4908 29.274 72.7378L28.5215 71.5824C25.9624 67.6533 27.1647 62.3858 31.1751 59.9562L32.3544 59.2417C35.1644 57.5392 36.7054 54.3393 36.2844 51.081L36.1077 49.7134C35.5069 45.0631 38.8755 40.839 43.5429 40.39L44.9155 40.2579C48.1858 39.9433 50.9626 37.7289 51.9971 34.6105L52.4312 33.3018C53.9076 28.8513 58.7754 26.5071 63.1754 28.1276L64.4694 28.6042C67.5523 29.7397 71.0149 28.9494 73.2999 26.5887L74.259 25.5979Z" fill="#05FFDB"/>
</g>
<path d="M74.2468 14.1601C77.508 10.7909 82.9108 10.7909 86.172 14.1601L87.131 15.1509C89.416 17.5116 92.8786 18.3019 95.9616 17.1664L97.2555 16.6898C101.656 15.0693 106.523 17.4135 108 21.864L108.434 23.1727C109.468 26.2911 112.245 28.5055 115.515 28.8201L116.888 28.9522C121.555 29.4012 124.924 33.6253 124.323 38.2756L124.147 39.6432C123.726 42.9015 125.267 46.1014 128.077 47.8038L129.256 48.5183C133.266 50.948 134.469 56.2154 131.909 60.1445L131.157 61.3C129.364 64.053 129.364 67.6046 131.157 70.3577L131.909 71.5131C134.469 75.4422 133.266 80.7096 129.256 83.1393L128.077 83.8538C125.267 85.5562 123.726 88.7561 124.147 92.0145L124.323 93.382C124.924 98.0323 121.555 102.256 116.888 102.705L115.515 102.838C112.245 103.152 109.468 105.367 108.434 108.485L108 109.794C106.523 114.244 101.656 116.588 97.2555 114.968L95.9616 114.491C92.8786 113.356 89.416 114.146 87.131 116.507L86.172 117.498C82.9108 120.867 77.508 120.867 74.2468 117.498L73.2878 116.507C71.0028 114.146 67.5402 113.356 64.4572 114.491L63.1633 114.968C58.7633 116.588 53.8954 114.244 52.4191 109.794L51.9849 108.485C50.9505 105.367 48.1737 103.152 44.9033 102.838L43.5308 102.705C38.8634 102.256 35.4947 98.0323 36.0955 93.382L36.2722 92.0145C36.6932 88.7561 35.1522 85.5562 32.3423 83.8538L31.1629 83.1393C27.1525 80.7096 25.9503 75.4422 28.5093 71.5131L29.2619 70.3577C31.0549 67.6046 31.0549 64.053 29.2619 61.3L28.5093 60.1445C25.9503 56.2154 27.1525 50.948 31.1629 48.5184L32.3423 47.8038C35.1522 46.1014 36.6932 42.9015 36.2722 39.6432L36.0955 38.2756C35.4947 33.6253 38.8634 29.4012 43.5308 28.9522L44.9033 28.8201C48.1737 28.5055 50.9505 26.2911 51.9849 23.1727L52.4191 21.864C53.8954 17.4135 58.7633 15.0693 63.1633 16.6898L64.4572 17.1664C67.5402 18.3019 71.0028 17.5116 73.2878 15.1509L74.2468 14.1601Z" fill="url(#paint4_linear_102_2)"/>
<path d="M85.2403 15.0619L86.1994 16.0527C88.8414 18.7822 92.845 19.696 96.4097 18.3831L97.7036 17.9065C101.416 16.5392 105.523 18.5171 106.769 22.2722L107.203 23.581C108.399 27.1866 111.61 29.747 115.391 30.1108L116.764 30.2428C120.702 30.6217 123.544 34.1858 123.037 38.1095L122.861 39.477C122.374 43.2445 124.156 46.9444 127.405 48.9128L128.584 49.6273C131.968 51.6774 132.982 56.1217 130.823 59.4369L130.07 60.5924C127.997 63.7755 127.997 67.8821 130.07 71.0653L130.823 72.2207C132.982 75.5359 131.968 79.9803 128.584 82.0303L127.405 82.7448C124.156 84.7132 122.374 88.4132 122.861 92.1806L123.037 93.5481C123.544 97.4719 120.702 101.036 116.764 101.415L115.391 101.547C111.61 101.911 108.399 104.471 107.203 108.077L106.769 109.385C105.523 113.141 101.416 115.118 97.7036 113.751L96.4097 113.275C92.845 111.962 88.8414 112.875 86.1994 115.605L85.2403 116.596C82.4888 119.439 77.9301 119.439 75.1785 116.596L74.2195 115.605C71.5774 112.875 67.5738 111.962 64.0091 113.275L62.7152 113.751C59.0027 115.118 54.8954 113.141 53.6497 109.385L53.2156 108.077C52.0195 104.471 48.8088 101.911 45.0275 101.547L43.655 101.415C39.7168 101.036 36.8745 97.4719 37.3815 93.5481L37.5582 92.1806C38.0449 88.4132 36.2631 84.7132 33.0141 82.7448L31.8348 82.0303C28.451 79.9803 27.4366 75.5359 29.5958 72.2207L30.3483 71.0653C32.4215 67.8821 32.4215 63.7755 30.3483 60.5924L29.5958 59.4369C27.4366 56.1217 28.451 51.6774 31.8348 49.6273L33.0141 48.9128C36.2631 46.9444 38.0449 43.2445 37.5582 39.477L37.3815 38.1095C36.8745 34.1858 39.7168 30.6217 43.6549 30.2428L45.0275 30.1108C48.8088 29.747 52.0195 27.1866 53.2156 23.581L53.6497 22.2722C54.8954 18.5171 59.0027 16.5392 62.7152 17.9065L64.0091 18.3831C67.5738 19.696 71.5774 18.7822 74.2195 16.0527L75.1785 15.0619C77.9301 12.2191 82.4887 12.2191 85.2403 15.0619Z" stroke="#F88A2E" stroke-opacity="0.36" stroke-width="2.59322"/>
<mask id="mask5_102_2" style="mask-type:alpha" maskUnits="userSpaceOnUse" x="27" y="11" width="107" height="110">
<path d="M74.2462 14.1601C77.5074 10.7909 82.9103 10.7909 86.1714 14.1601L87.1304 15.1509C89.4154 17.5116 92.878 18.3019 95.961 17.1664L97.2549 16.6898C101.655 15.0693 106.523 17.4135 107.999 21.864L108.433 23.1727C109.468 26.2911 112.245 28.5055 115.515 28.8201L116.887 28.9522C121.555 29.4012 124.924 33.6253 124.323 38.2756L124.146 39.6432C123.725 42.9015 125.266 46.1014 128.076 47.8038L129.255 48.5183C133.266 50.948 134.468 56.2154 131.909 60.1445L131.156 61.3C129.363 64.053 129.363 67.6046 131.156 70.3577L131.909 71.5131C134.468 75.4422 133.266 80.7096 129.255 83.1393L128.076 83.8538C125.266 85.5562 123.725 88.7561 124.146 92.0145L124.323 93.382C124.924 98.0323 121.555 102.256 116.887 102.705L115.515 102.838C112.245 103.152 109.468 105.367 108.433 108.485L107.999 109.794C106.523 114.244 101.655 116.588 97.2549 114.968L95.961 114.491C92.878 113.356 89.4154 114.146 87.1304 116.507L86.1714 117.498C82.9103 120.867 77.5074 120.867 74.2462 117.498L73.2872 116.507C71.0022 114.146 67.5396 113.356 64.4566 114.491L63.1627 114.968C58.7627 116.588 53.8949 114.244 52.4185 109.794L51.9843 108.485C50.9499 105.367 48.1731 103.152 44.9028 102.838L43.5302 102.705C38.8628 102.256 35.4941 98.0323 36.095 93.382L36.2717 92.0145C36.6926 88.7561 35.1516 85.5562 32.3417 83.8538L31.1623 83.1393C27.152 80.7096 25.9497 75.4422 28.5087 71.5131L29.2613 70.3577C31.0543 67.6046 31.0543 64.053 29.2613 61.3L28.5087 60.1445C25.9497 56.2154 27.152 50.948 31.1623 48.5184L32.3417 47.8038C35.1516 46.1014 36.6926 42.9015 36.2717 39.6432L36.095 38.2756C35.4941 33.6253 38.8628 29.4012 43.5302 28.9522L44.9028 28.8201C48.1731 28.5055 50.9499 26.2911 51.9843 23.1727L52.4185 21.864C53.8949 17.4135 58.7627 15.0693 63.1627 16.6898L64.4566 17.1664C67.5396 18.3019 71.0022 17.5116 73.2872 15.1509L74.2462 14.1601Z" fill="#CFC69C"/>
<path d="M85.2398 15.0619L86.1988 16.0527C88.8408 18.7822 92.8444 19.696 96.4091 18.3831L97.7031 17.9065C101.416 16.5392 105.523 18.5171 106.769 22.2722L107.203 23.581C108.399 27.1866 111.609 29.747 115.391 30.1108L116.763 30.2428C120.701 30.6217 123.544 34.1858 123.037 38.1095L122.86 39.477C122.373 43.2445 124.155 46.9444 127.404 48.9128L128.583 49.6273C131.967 51.6774 132.982 56.1217 130.822 59.4369L130.07 60.5924C127.997 63.7755 127.997 67.8821 130.07 71.0653L130.822 72.2207C132.982 75.5359 131.967 79.9803 128.583 82.0303L127.404 82.7448C124.155 84.7132 122.373 88.4132 122.86 92.1806L123.037 93.5481C123.544 97.4719 120.701 101.036 116.763 101.415L115.391 101.547C111.609 101.911 108.399 104.471 107.203 108.077L106.769 109.385C105.523 113.141 101.416 115.118 97.7031 113.751L96.4091 113.275C92.8444 111.962 88.8408 112.875 86.1988 115.605L85.2398 116.596C82.4882 119.439 77.9295 119.439 75.1779 116.596L74.2189 115.605C71.5768 112.875 67.5732 111.962 64.0085 113.275L62.7146 113.751C59.0021 115.118 54.8948 113.141 53.6492 109.385L53.215 108.077C52.0189 104.471 48.8083 101.911 45.0269 101.547L43.6544 101.415C39.7162 101.036 36.8739 97.4719 37.3809 93.5481L37.5576 92.1806C38.0443 88.4132 36.2626 84.7132 33.0135 82.7448L31.8342 82.0303C28.4505 79.9803 27.436 75.5359 29.5952 72.2207L30.3478 71.0653C32.421 67.8821 32.421 63.7755 30.3478 60.5924L29.5952 59.4369C27.436 56.1217 28.4504 51.6774 31.8342 49.6273L33.0135 48.9128C36.2626 46.9444 38.0443 43.2445 37.5576 39.477L37.3809 38.1095C36.8739 34.1858 39.7162 30.6217 43.6544 30.2428L45.0269 30.1108C48.8083 29.747 52.0189 27.1866 53.215 23.581L53.6492 22.2722C54.8948 18.5171 59.0021 16.5392 62.7146 17.9065L64.0085 18.3831C67.5732 19.696 71.5768 18.7822 74.2189 16.0527L75.1779 15.0619C77.9295 12.2191 82.4882 12.2191 85.2398 15.0619Z" stroke="#F88A2E" stroke-opacity="0.36" stroke-width="2.59322"/>
</mask>
<g mask="url(#mask5_102_2)">
<circle cx="70.9504" cy="54.9885" r="51.1653" fill="url(#paint5_linear_102_2)"/>
</g>
<g opacity="0.5">
<mask id="mask6_102_2" style="mask-type:alpha" maskUnits="userSpaceOnUse" x="35" y="17" width="82" height="83">
<path d="M80.2797 19.6536L81.0115 20.4096C83.0274 22.4923 86.0823 23.1895 88.8022 22.1877L89.7895 21.8241C92.6223 20.7808 95.7562 22.29 96.7067 25.1552L97.038 26.1539C97.9506 28.905 100.4 30.8587 103.286 31.1362L104.333 31.237C107.338 31.5261 109.507 34.2456 109.12 37.2395L108.985 38.283C108.614 41.1576 109.973 43.9807 112.452 45.4827L113.352 46.0279C115.934 47.5921 116.708 50.9833 115.06 53.5129L114.486 54.3945C112.904 56.8233 112.904 59.9568 114.486 62.3856L115.06 63.2672C116.708 65.7968 115.934 69.188 113.352 70.7522L112.452 71.2974C109.973 72.7994 108.614 75.6225 108.985 78.4972L109.12 79.5406C109.507 82.5345 107.338 85.254 104.333 85.5431L103.286 85.6439C100.4 85.9214 97.9506 87.8751 97.038 90.6262L96.7067 91.6249C95.7562 94.4901 92.6223 95.9993 89.7895 94.956L88.8022 94.5924C86.0823 93.5906 83.0274 94.2878 81.0115 96.3706L80.2797 97.1265C78.1802 99.2956 74.7018 99.2956 72.6023 97.1265L71.8705 96.3706C69.8546 94.2878 66.7997 93.5906 64.0797 94.5924L63.0924 94.956C60.2597 95.9993 57.1258 94.4901 56.1753 91.6249L55.844 90.6262C54.9314 87.8751 52.4815 85.9214 49.5963 85.6439L48.549 85.5431C45.5441 85.254 43.3753 82.5345 43.7622 79.5406L43.897 78.4972C44.2684 75.6225 42.9088 72.7994 40.4298 71.2974L39.5299 70.7522C36.948 69.188 36.174 65.7968 37.8215 63.2672L38.3957 62.3856C39.9776 59.9568 39.9776 56.8233 38.3957 54.3945L37.8215 53.5129C36.174 50.9833 36.948 47.5921 39.5299 46.0279L40.4298 45.4827C42.9088 43.9808 44.2684 41.1576 43.897 38.283L43.7622 37.2395C43.3753 34.2456 45.5441 31.5261 48.549 31.237L49.5963 31.1362C52.4815 30.8587 54.9314 28.905 55.844 26.1539L56.1753 25.1552C57.1258 22.29 60.2597 20.7808 63.0924 21.8241L64.0797 22.1877C66.7997 23.1895 69.8546 22.4923 71.8705 20.4096L72.6022 19.6536C74.7018 17.4845 78.1802 17.4845 80.2797 19.6536Z" fill="#CFC69C" stroke="#FFBB42" stroke-width="1.97869"/>
</mask>
<g mask="url(#mask6_102_2)">
<g style="mix-blend-mode:screen">
<circle cx="69.3756" cy="50.1186" r="39.0404" fill="url(#paint6_linear_102_2)"/>
</g>
</g>
</g>
<circle cx="80.2216" cy="65.8289" r="32.6746" stroke="url(#paint7_linear_102_2)" stroke-width="4.6678"/>
<circle cx="80.2216" cy="65.8289" r="36.3051" stroke="white" stroke-width="2.59322"/>
<g filter="url(#filter2_d_102_2)">
<rect x="67.2271" y="59.9094" width="21.0712" height="9.59452" rx="3.63051" transform="rotate(45 67.2271 59.9094)" fill="white"/>
<rect x="100.286" y="56.8591" width="34.9638" height="9.59452" rx="3.63051" transform="rotate(135 100.286 56.8591)" fill="white"/>
</g>
<defs>
<filter id="filter0_f_102_2" x="0.157335" y="0.733232" width="150.305" height="178.369" filterUnits="userSpaceOnUse" color-interpolation-filters="sRGB">
<feFlood flood-opacity="0" result="BackgroundImageFix"/>
<feBlend mode="normal" in="SourceGraphic" in2="BackgroundImageFix" result="shape"/>
<feGaussianBlur stdDeviation="13.4062" result="effect1_foregroundBlur_102_2"/>
</filter>
<filter id="filter1_d_102_2" x="56.6687" y="56.7552" width="37.7181" height="36.4001" filterUnits="userSpaceOnUse" color-interpolation-filters="sRGB">
<feFlood flood-opacity="0" result="BackgroundImageFix"/>
<feColorMatrix in="SourceAlpha" type="matrix" values="0 0 0 0 0 0 0 0 0 0 0 0 0 0 0 0 0 0 127 0" result="hardAlpha"/>
<feOffset dy="1.79763"/>
<feGaussianBlur stdDeviation="1.12352"/>
<feComposite in2="hardAlpha" operator="out"/>
<feColorMatrix type="matrix" values="0 0 0 0 0.883333 0 0 0 0 0.658672 0 0 0 0 0.0809722 0 0 0 0.41 0"/>
<feBlend mode="normal" in2="BackgroundImageFix" result="effect1_dropShadow_102_2"/>
<feBlend mode="normal" in="SourceGraphic" in2="effect1_dropShadow_102_2" result="shape"/>
</filter>
<filter id="filter2_d_102_2" x="59.3534" y="51.0599" width="42.0224" height="33.6974" filterUnits="userSpaceOnUse" color-interpolation-filters="sRGB">
<feFlood flood-opacity="0" result="BackgroundImageFix"/>
<feColorMatrix in="SourceAlpha" type="matrix" values="0 0 0 0 0 0 0 0 0 0 0 0 0 0 0 0 0 0 127 0" result="hardAlpha"/>
<feOffset dy="2.07458"/>
<feGaussianBlur stdDeviation="1.29661"/>
<feComposite in2="hardAlpha" operator="out"/>
<feColorMatrix type="matrix" values="0 0 0 0 0.883333 0 0 0 0 0.658672 0 0 0 0 0.0809722 0 0 0 0.41 0"/>
<feBlend mode="normal" in2="BackgroundImageFix" result="effect1_dropShadow_102_2"/>
<feBlend mode="normal" in="SourceGraphic" in2="effect1_dropShadow_102_2" result="shape"/>
</filter>
<linearGradient id="paint0_linear_102_2" x1="35.5311" y1="30.6892" x2="120.469" y2="115.627" gradientUnits="userSpaceOnUse">
<stop stop-color="#FDB83D"/>
<stop offset="1" stop-color="#F9D534"/>
</linearGradient>
<linearGradient id="paint1_linear_102_2" x1="101.436" y1="97.2333" x2="43.529" y2="28.9214" gradientUnits="userSpaceOnUse">
<stop stop-color="#FFBB42"/>
<stop offset="0.619792" stop-color="#F9B434" stop-opacity="0"/>
</linearGradient>
<linearGradient id="paint2_linear_102_2" x1="92.0317" y1="85.4019" x2="47.8473" y2="33.2781" gradientUnits="userSpaceOnUse">
<stop stop-color="#F88A2E" stop-opacity="0.33"/>
<stop offset="1" stop-color="#F9B434" stop-opacity="0"/>
</linearGradient>
<linearGradient id="paint3_linear_102_2" x1="45.2048" y1="53.8703" x2="105.875" y2="89.3643" gradientUnits="userSpaceOnUse">
<stop stop-color="#FEB441"/>
<stop offset="0.386364" stop-color="#F88A2E"/>
</linearGradient>
<linearGradient id="paint4_linear_102_2" x1="34.0501" y1="15.261" x2="132.074" y2="113.285" gradientUnits="userSpaceOnUse">
<stop stop-color="#FDB83D"/>
<stop offset="1" stop-color="#F9D534"/>
</linearGradient>
<linearGradient id="paint5_linear_102_2" x1="110.107" y1="92.0573" x2="43.2794" y2="13.2209" gradientUnits="userSpaceOnUse">
<stop stop-color="#FFBB42"/>
<stop offset="0.619792" stop-color="#F9B434" stop-opacity="0"/>
</linearGradient>
<linearGradient id="paint6_linear_102_2" x1="99.2535" y1="78.403" x2="48.2619" y2="18.2488" gradientUnits="userSpaceOnUse">
<stop stop-color="#F88A2E" stop-opacity="0.33"/>
<stop offset="1" stop-color="#F9B434" stop-opacity="0"/>
</linearGradient>
<linearGradient id="paint7_linear_102_2" x1="45.2131" y1="42.0136" x2="115.23" y2="82.9759" gradientUnits="userSpaceOnUse">
<stop stop-color="#FEB441"/>
<stop offset="0.386364" stop-color="#F88A2E"/>
</linearGradient>
</defs>
</svg>
